<?xml version="1.0" encoding="utf-8"?>
<!-- Generator: Adobe Illustrator 19.1.0, SVG Export Plug-In . SVG Version: 6.00 Build 0)  -->
<svg version="1.1" id="Layer_1" xmlns="http://www.w3.org/2000/svg" xmlns:xlink="http://www.w3.org/1999/xlink" x="0px" y="0px"
	 viewBox="-3018 2088 200 76" style="enable-background:new -3018 2088 200 76;" xml:space="preserve">
<style type="text/css">
	.st0{fill:#FEFEFE;}
	.st1{fill:#434343;}
	.st2{fill:#EAEAEA;}
	.st3{fill:#A7A7A7;}
	.st4{fill:#AAAAAA;}
	.st5{fill:#646464;}
	.st6{fill:#474747;}
	.st7{fill:#444444;}
	.st8{fill:#5D5D5D;}
	.st9{fill:#616161;}
	.st10{fill:#454545;}
	.st11{fill:#5E5E5E;}
	.st12{fill:#464646;}
	.st13{fill:#484848;}
	.st14{fill:#494949;}
	.st15{fill:#B5B5B5;}
	.st16{fill:#4B4B4B;}
	.st17{fill:#555555;}
	.st18{fill:#585858;}
	.st19{fill:#B4B4B4;}
	.st20{fill:#5F5F5F;}
	.st21{fill:#5B5B5B;}
	.st22{fill:#595959;}
	.st23{fill:#515151;}
	.st24{fill:#4E4E4E;}
	.st25{fill:#5C5C5C;}
	.st26{fill:#535353;}
	.st27{fill:#565656;}
	.st28{fill:#545454;}
	.st29{fill:#4C4C4C;}
	.st30{fill:#626262;}
	.st31{fill:#575757;}
	.st32{fill:#656565;}
	.st33{fill:#A8A8A8;}
	.st34{fill:#9F9F9F;}
	.st35{fill:#A5A5A5;}
	.st36{fill:#A2A2A2;}
	.st37{fill:#9E9E9E;}
	.st38{fill:#ADADAD;}
	.st39{fill:#606060;}
	.st40{fill:#505050;}
	.st41{fill:#A9A9A9;}
	.st42{fill:#A4A4A4;}
	.st43{fill:#A1A1A1;}
	.st44{fill:#B1B1B1;}
	.st45{fill:#B0B0B0;}
	.st46{fill:#B3B3B3;}
</style>
<g>
	<path class="st0" d="M-2917.8,2161.4c-13.5,0-27.1,0-40.6,0c-0.4,0-0.5-0.1-0.5-0.5c0-23.2,0-46.4,0-69.6c0-0.4,0.1-0.5,0.5-0.5
		c27.1,0,54.2,0,81.3,0c0.4,0,0.5,0.1,0.5,0.5c0,23.2,0,46.4,0,69.6c0,0.4-0.1,0.5-0.5,0.5
		C-2890.7,2161.4-2904.3,2161.4-2917.8,2161.4z"/>
	<path class="st1" d="M-2930.3,2096c1.6-0.1,3.3,0,4.9,0c0.5,0,0.3,0.3,0.3,0.6c0,4.1,0,8.1,0,12.2c0,1.1,0,1.1,1.1,1.1
		c4.5,0,9,0,13.5,0c0.5,0,0.6-0.1,0.6-0.6c0-4.2,0-8.4,0-12.6c0-0.5,0.1-0.6,0.6-0.6c1.4,0,2.9,0,4.3,0c0.3,0,0.4,0.1,0.4,0.4
		c0,5.2,0,10.3,0,15.5c0,0,0,0.1,0,0.1c-0.2,0.2-0.5,0.2-0.8,0.2c-8.1,0-16.2,0-24.3,0c-0.3,0-0.5,0-0.7-0.2
		c-0.1-0.1-0.1-0.3-0.1-0.5c0-5,0-10,0-15.1C-2930.4,2096.4-2930.4,2096.2-2930.3,2096z"/>
	<path class="st1" d="M-2900.5,2096c0.2,0,0.4,0,0.6,0c6.1,0,12.2,0,18.2,0c0.6,0,0.7,0.2,0.7,0.7c0,1.2,0,2.5,0,3.8
		c0,0.5-0.1,0.6-0.6,0.6c-4.3,0-8.7,0-13,0c-0.5,0-0.6,0.2-0.6,0.7c0,2.4,0,4.8,0,7.3c0,0.5,0.2,0.6,0.7,0.6c4.1,0,8.2,0,12.3,0
		c0.8,0,0.8,0,0.8,0.8c0,0.7,0,1.3,0,2c-0.2,0.2-0.5,0.2-0.8,0.2c-5.8,0-11.7,0-17.5,0c-0.3,0-0.5,0-0.7-0.2
		c-0.1-0.1-0.1-0.3-0.1-0.5c0-5.1,0-10.3,0-15.4C-2900.6,2096.4-2900.6,2096.2-2900.5,2096z"/>
	<path class="st1" d="M-2948.3,2112.5c-6.6-3.5-6.5-11.6-0.9-15.4c5.4-3.6,12.8-1.9,15.9,3.8c0.2,0.3,0.1,0.4-0.1,0.5
		c-1.2,0.7-2.5,1.5-3.7,2.2c-0.2,0.1-0.4,0.1-0.5-0.1c-0.4-0.7-0.9-1.4-1.4-1.9c-2.2-2.2-6.7-1.6-8.3,1.1c-0.9,1.5-0.6,3.2,0.6,4.4
		c0.7,0.7,1.6,1.2,2.5,1.6c1.9,0.8,3.9,1.5,5.8,2.5c0.6,0.3,1.2,0.6,1.7,1.1c-0.2,0.4-0.5,0.3-0.8,0.3c-1.8,0-3.6,0-5.4,0
		c-1.5,0-3,0-4.5,0C-2947.7,2112.6-2948,2112.6-2948.3,2112.5z"/>
	<path class="st2" d="M-2912.3,2115.4c-0.3,0.4-0.1,0.7,0.1,1c0.5,0.7,1,1.4,1.5,2c0.2,0.2,0.3,0.5,0.3,0.9c0,2.8,0,5.6,0,8.4
		c0,0.5-0.1,0.6-0.6,0.3c-1.4-1-2.7-2-3.8-3.3c-0.7-0.8-1.4-1.6-2-2.4c-0.2-0.3-0.3-0.1-0.5,0.1c-1.8,2.4-3.9,4.4-6.5,5.9
		c-0.2,0.1-0.5,0.3-0.8,0.3c0-1.3,0-2.6,0-3.9c0-1.5,0-3,0-4.6c0-0.5,0.2-0.9,0.5-1.2c0.8-0.8,1.4-1.7,2-2.6c0.2-0.3,0.2-0.5,0-0.8
		C-2918.7,2115.4-2915.5,2115.4-2912.3,2115.4z"/>
	<path class="st2" d="M-2931,2105.1c0,1.1,0,2.3,0,3.4c0,0.4-0.2,0.6-0.6,0.6c-1.7,0.2-3.1,1-4.1,2.4c-0.1,0.2-0.3,0.3-0.6,0.1
		c-2.3-1.6-4.9-2.4-7.3-3.4c-0.7-0.3-0.7-0.3-0.3-1c1.2-1.8,2.8-3.2,4.6-4.2c0.3-0.2,0.5-0.2,0.7,0.2c0.1,0.3,0.3,0.5,0.5,0.7
		c0.3,0.5,0.8,0.6,1.3,0.3c1.3-0.7,2.6-1.5,3.9-2.3c0.1-0.1,0.3-0.2,0.3-0.3c0.2-0.8,0.9-0.5,1.4-0.5c0.3,0,0.3,0.3,0.3,0.5
		C-2931,2102.8-2931,2104-2931,2105.1z"/>
	<path class="st2" d="M-2946.3,2116.4c0-0.7,0-1.2,0-1.7c0-0.2,0.1-0.4,0.3-0.3c1.9,0.9,4,1.5,5.8,2.8c1.9,1.4,2.5,3.8,1.5,6.1
		c-0.7,1.5-1.7,2.4-3.3,2.9c-0.3,0.1-0.6,0.1-0.8-0.2c-1.7-2-2.8-4.3-3.3-6.9C-2946.2,2118.1-2946.3,2117.1-2946.3,2116.4z"/>
	<path class="st2" d="M-2894.7,2120.4c0-1.6,0-3.2,0-4.7c0-0.4,0.1-0.5,0.5-0.5c1.9,0,3.8,0,5.7,0c0.4,0,0.6,0.1,0.6,0.6
		c-0.1,2.5-0.4,5-1.6,7.3c-0.5,0.9-1,1.7-1.6,2.5c-0.2,0.2-0.3,0.2-0.6,0.2c-0.8,0-1.6,0-2.5,0c-0.4,0-0.5-0.2-0.5-0.5
		C-2894.6,2123.6-2894.7,2122-2894.7,2120.4z"/>
	<path class="st3" d="M-2943.7,2142.6c3.1,0,6.2,0,9.3,0c0.6,0,0.7-0.2,0.7-0.8c0-2.8,0-5.7,0-8.5c0-0.6,0.2-0.8,0.8-0.7
		c1,0,2,0,2.9,0c0.2,0,0.4-0.1,0.5,0.1c-0.2,0.2-0.5,0.2-0.8,0.2c-0.8,0-1.6,0-2.4,0c-0.7,0-0.7,0.1-0.8,0.8c0,0.2,0,0.4,0,0.6
		c0,0.9,0,1.9,0,2.8c0,0.7,0,1.4,0,2.2c0,0.5,0,1,0,1.5c0,0.4,0.1,0.6,0.5,0.7c0.9,0.1,1.9,0.1,2.8,0.1c0.3,0,0.4-0.1,0.4-0.5
		c0-0.6,0-1.3,0-1.9c0-0.7,0-1.4,0-2.1c0-0.9,0-1.8,0-2.7c0-0.6-0.2-1.1,0.2-1.7c0.2,0.2,0.1,0.5,0.1,0.7c0,2.9,0,5.7,0,8.6
		c0,0.5,0.1,0.6,0.6,0.6c2.9,0,5.8,0,8.7,0c0.2,0,0.5,0,0.7,0c0.1,0.7,0,1.3,0.1,2c0,0.4-0.3,0.3-0.5,0.3c-0.7,0-1.4-0.1-2.1,0
		c-0.9,0.2-1.9,0.2-2.8,0c-1.3-0.2-2.6,0.3-3.8,0c-0.5-0.1-1,0.1-1.4,0.1c-0.3,0-0.6,0-0.9-0.1c-0.1,0-0.2-0.1-0.3-0.1
		c-1.6,0.2-3.1,0.1-4.7,0.2c-1.6,0-3.3,0.2-5-0.1c-0.6-0.1-1.3,0.1-2,0.1c-0.7,0.1-0.8,0-0.8-0.7
		C-2943.7,2143.8-2943.8,2143.2-2943.7,2142.6z"/>
	<path class="st4" d="M-2943.7,2142.6c0,0.6,0,1.3,0,1.9c0,0.4,0.3,0.6,0.6,0.4c0.4-0.2,0.9,0,1.3-0.1c1-0.2,1.9,0.2,2.9,0.2
		c1,0,2.1-0.1,3.1-0.1c0.8,0,1.6,0,2.4,0c0.4,0,0.9-0.3,1.3,0.1c0.1,0.1,0.2-0.1,0.3-0.1c0.2-0.1,0.4-0.2,0.5-0.2
		c0.6,0.4,1.2,0.3,1.7,0.2c1.2-0.2,2.4,0.3,3.6-0.2c0.1,0,0.2,0,0.3,0c0.9,0.4,1.9,0.2,2.8,0.2c1,0,2.1-0.1,3.1,0
		c0.3,0,0.3-0.2,0.3-0.4c0-0.6,0-1.2,0-1.8c0.2,0.5,0.1,1,0.1,1.5c0,0.7,0,1.4,0,2.1c0,0.5-0.2,0.7-0.7,0.7c-3.1,0-6.2,0-9.3,0
		c-0.1,0.1,0,0.3-0.1,0.4c-0.2,0.1-0.4,0.1-0.7,0.1c-0.8,0.1-1.7,0-2.5,0c-0.3,0-0.6-0.1-0.8-0.3c-0.1-0.1-0.1-0.2-0.2-0.3
		c-3.2,0-6.3,0-9.5,0c-0.4,0-0.6-0.1-0.6-0.6c0-1.1,0-2.1,0-3.2C-2943.8,2143-2943.9,2142.8-2943.7,2142.6z"/>
	<path class="st5" d="M-2900.5,2096c0,5.1,0,10.2,0,15.3c0,0.4,0,0.7,0,1.1c0.3,0.4,0.1,0.9,0.2,1.4c0,0.4,0,0.9,0,1.3
		c0,0.3,0,0.6,0,0.9c0,0.4,0,0.9,0,1.3c0,0.5,0,1.1,0,1.6c0,0.5,0,1,0,1.5c0,0.6,0,1.2,0,1.8c0,0.6,0,1.2,0,1.7c0,0.4,0,0.9,0,1.3
		c0,0.4,0,0.9,0,1.3c0,0.4,0,0.7,0,1.1c0,0.3,0,0.7,0,1c0,0.2,0,0.4,0,0.5c0,0.3,0.2,0.4,0.4,0.4c0.2,0,0.4,0,0.6,0
		c5.7,0,11.3,0,17,0c0.1,0,0.2,0,0.4,0c0.5,0,0.7-0.2,0.7-0.7c0-0.1,0-0.2,0-0.3c0-0.3,0-0.7,0-1c-0.1-0.8-0.1-0.8-0.9-0.8
		c-4,0-8.1,0-12.1,0c-0.3,0-0.7,0.2-0.9-0.3c4.5,0,9,0,13.5,0c0.5,0,0.7,0.1,0.7,0.7c-0.1,1.2,0,2.5,0,3.7c0,0.5-0.1,0.7-0.7,0.7
		c-5.8,0-11.6,0-17.4,0c-0.5,0-1.1,0.2-1.4-0.1c-0.3-0.3-0.1-1-0.1-1.5c0-11,0-22.1,0-33.1
		C-2900.6,2096.5-2900.7,2096.2-2900.5,2096z"/>
	<path class="st6" d="M-2909.8,2114.8c-5.1,0-10.1,0-15.2,0c-0.1,0-0.1,0.1-0.2,0.1c-1.6,0.1-3.2,0.1-4.8,0c-0.1,0-0.2,0-0.3-0.1
		c-0.1-0.5-0.1-1,0-1.5c0.2-0.2,0.5-0.2,0.8-0.2c8.1,0,16.1,0,24.2,0c0.3,0,0.6,0,0.8,0.2c0,0.5,0,0.9,0,1.4
		c-0.2,0.2-0.4,0.2-0.7,0.2c-1.3,0-2.7,0-4,0C-2909.4,2115-2909.6,2115-2909.8,2114.8z"/>
	<path class="st7" d="M-2904.5,2113.4c-8.6,0-17.2,0-25.8,0c-0.1-0.5-0.1-0.9,0-1.4c8.6,0,17.2,0,25.8,0
		C-2904.5,2112.5-2904.5,2112.9-2904.5,2113.4z"/>
	<path class="st4" d="M-2905.3,2146.9c-3.1,0-6.3,0-9.4,0c-0.5,0-0.7-0.1-0.7-0.6c0-1,0-2,0-3c0-0.2-0.1-0.4,0.1-0.5
		c0.2,0.2,0.2,0.5,0.2,0.8c0,0.3,0,0.5,0,0.8c0,0.2,0,0.3,0,0.5c0,0.6,0,0.6,0.6,0.6c1.1,0.1,2.1,0,3.2,0c1.3,0.1,2.6,0,3.9,0
		c1.2,0,2.4,0.1,3.7,0c1.7-0.1,3.4,0.1,5.1-0.1c0.3,0,0.6,0,0.9,0.1c0.3,0.1,0.7,0.2,1,0.1c0.3-0.1,0.6-0.1,0.9,0
		c0.1,0.1,0.3,0.1,0.5,0.1c1.2-0.1,2.5-0.2,3.7-0.1c0.4,0,0.6-0.1,0.5-0.5c0-0.2,0-0.3,0-0.5c0-0.4,0-0.8,0-1.2c0-0.2,0-0.3,0.2-0.5
		c0.2,0.5,0.1,1.1,0.1,1.6c0,0.7,0,1.4,0,2c0,0.5-0.3,0.5-0.6,0.5c-3.1,0-6.3,0-9.4,0c-0.1,0.2,0,0.4-0.1,0.6c-0.2,0.2-0.5,0-0.7,0
		c-0.8,0-1.7,0-2.5,0.1c-0.3,0-0.7,0-0.9-0.3C-2905.3,2147.1-2905.2,2147-2905.3,2146.9z"/>
	<path class="st8" d="M-2952.2,2128.2c-0.5-0.5-0.9-1.1-1.2-1.8c0.3-0.2,0.6-0.2,0.9-0.2c1.9,0,3.8,0,5.7,0c0.1,0,0.1,0,0.2-0.1
		c1.6,0.8,3.3,1,5.1,0.4c0.4-0.1,0.7-0.3,1.1-0.5c0.7,0.1,1.3,0.1,2,0.1c1.3,0,2.6,0,3.9,0c0.3,0,0.6,0,0.8,0.2
		c-0.3,0.7-0.8,1.2-1.3,1.8c-0.3,0.1-0.6,0.2-1,0.2c-5.1,0-10.3,0-15.4,0C-2951.5,2128.4-2951.9,2128.4-2952.2,2128.2z"/>
	<path class="st9" d="M-2952.2,2128.2c5.8,0,11.5,0,17.3,0c-0.7,0.9-1.5,1.6-2.5,2.1c-0.2,0.1-0.3,0.1-0.5,0.1
		c-3.8-0.1-7.6-0.1-11.4,0c-0.2,0-0.4,0-0.6-0.1C-2950.7,2129.8-2951.5,2129.1-2952.2,2128.2z"/>
	<path class="st10" d="M-2900.5,2113.8c0-0.5,0-0.9,0-1.4c6.3,0,12.7,0,19,0c0,0.5,0,0.9,0,1.4c-0.2,0.2-0.5,0.2-0.8,0.2
		c-5.8,0-11.6,0-17.4,0C-2900,2114-2900.3,2114-2900.5,2113.8z"/>
	<path class="st3" d="M-2891,2142.7c0,0.1,0,0.3,0,0.4c-0.3,0.5-0.7,0.5-1.2,0.5c-1,0-2.1-0.1-3.1-0.1c-0.8,0-1.6,0-2.3-0.1
		c-1.5,0-3,0.1-4.4,0.1c-0.2,0-0.5,0-0.7,0c-1-0.1-2,0-3,0c-1.3-0.1-2.6,0.2-4,0c-0.4-0.1-0.8,0.1-1.2,0.1c-0.9,0-1.9-0.1-2.8-0.1
		c-0.2,0-0.4,0.1-0.6,0.1c-0.3,0.1-0.7,0.1-1-0.1c0-0.3,0-0.5,0-0.8c3.1,0,6.1,0,9.2,0c0.9,0,0.8,0.1,0.8-0.8c0-2.8,0-5.6,0-8.4
		c0-0.6,0.2-0.8,0.8-0.7c1,0,2,0,2.9,0c0.2,0,0.4-0.1,0.6,0.1c0,0,0,0.1-0.1,0.1c-0.6,0.2-1.3,0.1-1.9,0.1c-0.5,0-0.9,0-1.4,0
		c-0.4,0-0.6,0.2-0.6,0.6c0,0.3,0,0.5,0,0.8c0,0.8,0,1.7,0,2.5c0,0.6,0,1.2,0,1.7c0,0.5,0,1,0,1.5c0,0.6,0,0.6,0.7,0.6
		c1,0,1.9-0.1,2.9,0.1c0.2,0,0.3,0,0.4,0.2c0.1,0.5-0.1,1.1,0.1,1.7c3.2,0,6.4,0,9.7,0C-2891.2,2142.6-2891.1,2142.6-2891,2142.7z"
		/>
	<path class="st2" d="M-2921.1,2109.2c-1,0-1.9,0-2.9,0c-0.4,0-0.5-0.1-0.5-0.5c0-1.7,0-3.4,0-5.1c0-0.5,0.2-0.4,0.5-0.2
		c1.2,0.7,2.2,1.5,3.2,2.4c1,0.9,1.9,1.9,2.8,3c0.1,0.1,0.2,0.2,0.2,0.3c-0.1,0.2-0.2,0.1-0.4,0.1
		C-2919.2,2109.2-2920.1,2109.2-2921.1,2109.2z"/>
	<path class="st2" d="M-2913.6,2109.2c-1,0-1.9,0-2.9,0c-0.2,0-0.4,0-0.2-0.3c1.7-2.1,3.5-3.9,5.8-5.3c0.4-0.2,0.5-0.2,0.5,0.3
		c0,1.6,0,3.2,0,4.9c0,0.4-0.1,0.5-0.5,0.5C-2911.8,2109.2-2912.7,2109.2-2913.6,2109.2z"/>
	<path class="st11" d="M-2900.5,2127.5c0-0.4,0-0.7,0-1.1c0.2-0.2,0.5-0.2,0.8-0.2c1,0,2,0,3,0c1.1,0,1.1,0,1.2-1.1
		c0-0.4,0-0.9,0-1.3c0-0.6,0-1.2,0-1.8c0-0.6,0-1.2,0-1.8c0-0.5,0-1,0-1.5c0-0.5,0-1.1,0-1.6c0-0.4,0-0.8,0-1.3c0-0.3,0-0.5,0-0.8
		c0-0.2,0-0.3,0.1-0.5c0-0.1,0.1-0.1,0.2,0c0,3.9,0,7.8,0,11.7c0.2,0.2,0.4,0.1,0.7,0.1c4.1,0,8.2,0,12.4,0c1.1,0,1.1,0,1,1.1
		c-0.2,0.2-0.5,0.2-0.8,0.2c-5.9,0-11.9,0-17.8,0C-2900,2127.7-2900.3,2127.7-2900.5,2127.5z"/>
	<path class="st2" d="M-2901.2,2105.4c0,1.2,0,2.5,0,3.7c0,0.3-0.1,0.5-0.4,0.3c-0.6-0.3-1.3-0.2-1.9-0.3c-0.3-0.1-0.4-0.1-0.4-0.4
		c0-2.3,0-4.6,0-6.9c0-0.4,0.3-0.5,0.5-0.5c0.6,0,1.2,0,1.8,0c0.4,0,0.3,0.2,0.3,0.5C-2901.2,2102.9-2901.2,2104.2-2901.2,2105.4z"
		/>
	<path class="st2" d="M-2901.2,2126.3c0,1.2,0,2.4,0,3.6c0,0.4-0.1,0.6-0.6,0.6c-0.6,0-1.2,0-1.7-0.1c-0.3-0.1-0.4-0.2-0.4-0.4
		c0-2.3,0-4.6,0-6.9c0-0.3,0.1-0.4,0.4-0.4c0.7-0.1,1.4-0.1,2.1-0.3c0.3-0.1,0.2,0.2,0.2,0.3
		C-2901.2,2123.9-2901.2,2125.1-2901.2,2126.3z"/>
	<path class="st12" d="M-2948.3,2112.5c0.3-0.1,0.6-0.1,1-0.1c3.3,0,6.6,0,9.9,0c0.2,0,0.5,0.1,0.7-0.1c0.9,0.4,1.5,1,2.1,1.7
		c0,0.3-0.2,0.4-0.4,0.4c-0.2,0-0.4,0-0.6,0c-2.5,0-5,0-7.5,0c-0.5,0-0.9-0.1-1.3-0.2C-2945.8,2113.8-2947.1,2113.2-2948.3,2112.5z"
		/>
	<path class="st2" d="M-2889.4,2109c-1.6,0-3.2,0-4.8,0c-0.4,0-0.4-0.2-0.4-0.5c0-1.6,0-3.2,0-4.9c0-0.4,0.1-0.4,0.4-0.2
		c1.7,1.2,3.1,2.6,4.2,4.3C-2889.8,2108.1-2889.6,2108.4-2889.4,2109z"/>
	<path class="st5" d="M-2949.8,2130.3c3.9-0.3,7.8,0,11.7-0.1c0.2,0,0.5,0.1,0.7,0.1c-1.3,0.9-2.8,1.4-4.3,1.6
		c-2.6,0.3-5.1,0.1-7.4-1.1C-2949.3,2130.6-2949.5,2130.5-2949.8,2130.3z"/>
	<path class="st13" d="M-2895.4,2114.6c0,0.2,0,0.3,0,0.5c-0.2,0.2-0.4,0.2-0.7,0.2c-1.3,0-2.6,0-3.8,0c-0.2,0-0.5,0-0.7-0.2
		c0-0.4,0-0.9,0-1.3c6.3,0,12.7,0,19,0c0,0.2,0.1,0.5,0,0.7c-0.2,0.1-0.4,0.1-0.6,0.1c-4.2,0-8.4,0-12.5,0
		C-2894.9,2114.5-2895.2,2114.5-2895.4,2114.6z"/>
	<path class="st2" d="M-2935.8,2130c1-0.7,1.6-1.5,2.2-2.3c1-1.3,1.6-2.8,1.8-4.5c0-0.1,0.1-0.3,0.1-0.4c0-0.1,0.1-0.2,0.3-0.2
		c0.2,0,0.3,0.1,0.3,0.3c0,0.3,0,0.5,0,0.8c0,2.1,0,4.1,0,6.2c0,0.4-0.1,0.6-0.6,0.6C-2933,2130.4-2934.3,2130.4-2935.8,2130z"/>
	<path class="st5" d="M-2930.3,2112c0,0.5,0,0.9,0,1.4c0,0.5,0,0.9,0,1.4c0.3,0.4,0.1,0.8,0.2,1.2c0,0.5,0,1,0,1.5
		c0,0.4,0,0.9,0,1.3c0,0.4,0,0.9,0,1.3c0,0.6,0,1.2,0,1.7c0,0.5,0,1.1,0,1.6c0,0.5,0,1.1,0,1.6c0,0.5,0,1,0,1.5c0,0.4,0,0.9,0,1.3
		c0,0.1,0,0.2,0,0.2c0,1.3-0.1,1.2,1.3,1.2c0.9,0,1.8,0,2.8,0c0.7,0,0.8,0,0.8-0.8c0-0.2,0-0.5,0-0.7c0-0.4,0-0.9,0-1.3
		c0-0.5,0-1,0-1.5c0-0.5,0-1.1,0-1.6c0-0.5,0-1.1,0-1.6c0-0.6,0-1.2,0-1.7c0-0.4,0-0.9,0-1.3c0-0.4,0-0.9,0-1.3c0-0.5,0-1,0-1.5
		c0-0.4-0.1-0.8,0.2-1.2c0,0,0.1,0,0.1,0c0,0.3,0,0.5,0,0.8c0,5.1,0,10.1,0,15.2c0,0.4-0.1,0.6-0.6,0.6c-1.4,0-2.9,0-4.3,0
		c-0.4,0-0.5-0.1-0.5-0.5c0-11.5,0-22.9,0-34.4c0-0.1-0.1-0.3,0.1-0.4c0,5,0,10.1,0,15.1C-2930.3,2111.5-2930.3,2111.7-2930.3,2112z
		"/>
	<path class="st14" d="M-2944.5,2114.2c3,0,6.1,0,9.1,0c0.3,0,0.6,0.1,0.7-0.3c0.6,0.5,1,1.1,1.3,1.8c-0.1,0.4-0.4,0.3-0.6,0.3
		c-2.2,0-4.5,0.1-6.7,0C-2941.9,2115.3-2943.2,2114.9-2944.5,2114.2z"/>
	<path class="st15" d="M-2929.5,2147.2c0-0.1,0-0.3,0.1-0.3c0,2.8,0,5.7,0,8.5c0,1.3,0,1.3-1.3,1.3c-0.8,0-1.6,0-2.4,0
		c-0.5,0-0.6-0.2-0.6-0.6c0-3.1,0-6.2,0-9.2c0.1,0,0.1,0.1,0.1,0.2c0.2,0.2,0.2,0.5,0.2,0.7c0,0.9,0,1.9,0,2.8c0,0.9,0,1.7,0,2.6
		c0,0.6,0.1,0.6,0.6,0.5c0.4-0.1,0.8-0.1,1.2,0c0.5,0.1,0.9,0.1,1.4,0.1c0.4,0,0.5-0.2,0.5-0.5c0-0.9,0-1.7,0-2.6c0-0.9,0-1.8,0-2.8
		C-2929.7,2147.6-2929.7,2147.4-2929.5,2147.2z"/>
	<path class="st16" d="M-2940.7,2116c0.2-0.2,0.4-0.1,0.6-0.1c2,0,4,0,6,0c0.2,0,0.5,0.1,0.7-0.1c0.4,0.5,0.6,1,0.7,1.6
		c0,0.4-0.3,0.4-0.6,0.4c-1.6,0.1-3.3,0-4.9,0c-0.2,0-0.3-0.1-0.5-0.2C-2939.3,2117-2939.9,2116.5-2940.7,2116z"/>
	<path class="st17" d="M-2954.6,2122.9c-0.4-1.3-0.4-1.3,0.9-1.6c1.3-0.3,2.5-0.5,3.8-0.8c0.4-0.1,0.6,0,0.6,0.5
		c0.1,0.7,0.2,1.4,0.4,2.1c-0.2,0.2-0.5,0.2-0.7,0.2c-1.4,0-2.8,0-4.2,0C-2954.1,2123.2-2954.4,2123.2-2954.6,2122.9z"/>
	<path class="st18" d="M-2954.6,2122.9c0.2,0.1,0.3,0.1,0.5,0.1c1.7,0,3.4,0,5.2,0c0.2,0.6,0.4,1.2,0.8,1.7c0,0.4-0.3,0.4-0.6,0.4
		c-0.8,0-1.5,0-2.3,0c-0.7,0-1.5,0-2.2,0c-0.3,0-0.6,0-0.8-0.2C-2954.3,2124.3-2954.5,2123.6-2954.6,2122.9z"/>
	<path class="st19" d="M-2905.3,2146.9c0.2,0.1,0.1,0.2,0.1,0.3c0.1,0.2,0.2,0.5,0.2,0.7c0,0.8,0,1.7,0,2.5c0,0.8,0,1.5,0,2.3
		c0,0.4,0,0.8,0,1.2c0,0.3,0.1,0.4,0.4,0.4c0.1,0,0.2,0,0.3,0c0.9-0.2,1.7,0,2.5,0c0.4,0,0.5-0.1,0.5-0.5c0-0.4,0-0.9,0-1.3
		c0-0.8,0-1.5,0-2.3c0-0.7,0-1.5,0-2.2c0-0.3,0-0.5,0.2-0.7c0-0.2-0.1-0.4,0.1-0.6c0,2.4,0,4.8,0,7.3c0,0.7-0.1,1.5-0.1,2.2
		c0,0.3-0.1,0.4-0.4,0.4c-1.1,0-2.3,0-3.4,0c-0.5,0-0.4-0.3-0.4-0.6c0-2.9,0-5.7,0-8.6C-2905.3,2147.3-2905.3,2147.1-2905.3,2146.9z
		"/>
	<path class="st20" d="M-2904.5,2126.7c0,0.7,0,1.3,0,2c-0.2,0.2-0.4,0.2-0.7,0.2c-1.3,0-2.6,0-4,0c-0.2,0-0.5,0-0.7-0.2
		c0-0.7,0-1.3,0-2c0.2-0.2,0.4-0.2,0.7-0.2c1.3,0,2.6,0,4,0C-2904.9,2126.5-2904.7,2126.5-2904.5,2126.7z"/>
	<path class="st21" d="M-2954,2124.9c1.8,0,3.5,0,5.3,0c0.2,0,0.4,0.1,0.5-0.2c0.5,0.5,0.9,1.2,1.6,1.5c-0.1,0.3-0.4,0.2-0.6,0.2
		c-2.1,0-4.1,0-6.2,0C-2953.6,2126-2953.8,2125.5-2954,2124.9z"/>
	<path class="st22" d="M-2938.9,2125c0.3-0.5,0.6-1,0.9-1.5c0.3-0.1,0.7-0.1,1-0.1c1.2,0,2.5,0,3.7,0c0.3,0,0.6,0,0.8,0.2
		c-0.1,0.6-0.3,1.2-0.6,1.8c-0.1,0.1-0.2,0.1-0.3,0.1c-1.6,0-3.3,0-4.9,0C-2938.5,2125.4-2939,2125.5-2938.9,2125z"/>
	<path class="st23" d="M-2909.8,2120.7c0-0.6,0-1.2,0-1.8c0.2-0.2,0.4-0.2,0.7-0.2c1.3,0,2.6,0,4,0c0.2,0,0.5,0,0.7,0.2
		c0,0.6,0,1.2,0,1.8c-0.2,0.2-0.4,0.2-0.7,0.2c-1.3,0-2.6,0-4,0C-2909.4,2120.9-2909.6,2120.9-2909.8,2120.7z"/>
	<path class="st24" d="M-2938.7,2117.7c1.7,0,3.5,0,5.2,0c0.3,0,0.6,0,0.8-0.3c0.2,0.5,0.3,0.9,0.3,1.4c0.1,0.3,0,0.5-0.3,0.5
		c-0.3,0.1-0.6,0-0.9,0c-1.2,0-2.3,0-3.5,0c-0.3,0-0.6,0-0.8-0.2C-2938.1,2118.7-2938.4,2118.2-2938.7,2117.7z"/>
	<path class="st25" d="M-2904.5,2126.7c-1.8,0-3.5,0-5.3,0c0-0.5,0-1.1,0-1.6c0.2-0.2,0.4-0.2,0.7-0.2c1.3,0,2.6,0,4,0
		c0.2,0,0.5,0,0.7,0.2C-2904.5,2125.6-2904.5,2126.1-2904.5,2126.7z"/>
	<path class="st26" d="M-2937.6,2122.1c0-0.5,0-1.1,0-1.6c0.5-0.1,1-0.1,1.6-0.1c0.9,0,1.8,0,2.7,0c0.5,0,0.9-0.1,1.1-0.6
		c0.1,0.8,0.1,1.5,0,2.2c-0.2,0.2-0.4,0.2-0.7,0.2c-1.4,0-2.7,0-4.1,0C-2937.2,2122.3-2937.4,2122.3-2937.6,2122.1z"/>
	<path class="st27" d="M-2937.6,2122.1c1.8,0,3.6,0,5.4,0c0,0.5-0.1,1-0.2,1.5c-1.6,0-3.2,0-4.8,0c-0.3,0-0.5,0-0.7-0.1
		C-2937.8,2123-2937.7,2122.6-2937.6,2122.1z"/>
	<path class="st28" d="M-2909.8,2120.7c1.8,0,3.5,0,5.3,0c0,0.5,0,1,0,1.5c-0.2,0.2-0.4,0.2-0.7,0.2c-1.3,0-2.6,0-4,0
		c-0.2,0-0.5,0-0.7-0.2C-2909.8,2121.7-2909.8,2121.2-2909.8,2120.7z"/>
	<path class="st29" d="M-2904.5,2116c0,0.5,0,1,0,1.5c-0.2,0.2-0.4,0.2-0.7,0.2c-1.3,0-2.6,0-4,0c-0.2,0-0.5,0-0.7-0.2
		c0-0.5,0-1,0-1.5c0.2-0.2,0.4-0.2,0.7-0.2c1.3,0,2.6,0,4,0C-2904.9,2115.8-2904.7,2115.8-2904.5,2116z"/>
	<path class="st30" d="M-2909.8,2128.7c1.8,0,3.5,0,5.3,0c0,0.5,0,1,0,1.5c-0.2,0.2-0.4,0.2-0.7,0.2c-1.3,0-2.6,0-4,0
		c-0.2,0-0.5,0-0.7-0.2C-2909.8,2129.7-2909.8,2129.2-2909.8,2128.7z"/>
	<path class="st31" d="M-2909.8,2122.2c1.8,0,3.5,0,5.3,0c0,0.5,0,1,0,1.5c-0.2,0.2-0.4,0.2-0.7,0.2c-1.3,0-2.6,0-4,0
		c-0.2,0-0.5,0-0.7-0.2C-2909.8,2123.2-2909.8,2122.7-2909.8,2122.2z"/>
	<path class="st23" d="M-2932.2,2119.9c0.1,0.6-0.1,0.8-0.7,0.7c-1.3,0-2.6,0-4,0c-0.2,0-0.5,0-0.7-0.1c-0.1-0.4-0.2-0.9-0.3-1.3
		c1.7,0,3.3,0,5,0c0.3,0,0.5,0,0.5-0.4C-2932.1,2119.1-2932.2,2119.5-2932.2,2119.9z"/>
	<path class="st21" d="M-2938.9,2125c0.1,0.4,0.3,0.3,0.6,0.3c1.5,0,2.9,0,4.4,0c0.3,0,0.6,0,0.9,0.1c-0.1,0.4-0.3,0.7-0.5,1.1
		c-2.1,0-4.1,0-6.2,0c-0.2,0-0.5,0.1-0.6-0.2C-2939.8,2125.8-2939.3,2125.4-2938.9,2125z"/>
	<path class="st24" d="M-2909.8,2117.5c1.8,0,3.5,0,5.3,0c0,0.5,0,0.9,0,1.4c-1.8,0-3.5,0-5.3,0
		C-2909.8,2118.5-2909.8,2118-2909.8,2117.5z"/>
	<path class="st22" d="M-2909.8,2123.7c1.8,0,3.5,0,5.3,0c0,0.4,0,0.9,0,1.3c-1.8,0-3.5,0-5.3,0
		C-2909.8,2124.6-2909.8,2124.2-2909.8,2123.7z"/>
	<path class="st32" d="M-2909.8,2130.2c1.8,0,3.5,0,5.3,0c0.1,1.2,0.1,1.2-1.1,1.2c-1.2,0-2.4,0-3.6,0c-0.5,0-0.7-0.1-0.6-0.6
		C-2909.8,2130.6-2909.8,2130.4-2909.8,2130.2z"/>
	<path class="st14" d="M-2904.5,2116c-1.8,0-3.5,0-5.3,0c0-0.4,0-0.8-0.1-1.2c1.8,0,3.5,0,5.3,0
		C-2904.5,2115.2-2904.5,2115.6-2904.5,2116z"/>
	<path class="st14" d="M-2895.4,2114.6c0.2-0.2,0.4-0.1,0.7-0.1c4.4,0,8.8,0,13.1,0c-0.2,0.1-0.4,0.1-0.6,0.1c-4.1,0-8.3,0-12.4,0
		c-0.2,0-0.4,0-0.6,0L-2895.4,2114.6L-2895.4,2114.6z"/>
	<path class="st33" d="M-2901,2142.6c-0.3-0.5-0.1-1.1-0.1-1.6c-0.3-0.5-0.1-1-0.2-1.5c0-0.3,0-0.6,0-0.9c0-0.6,0-1.3,0-1.9
		c0-0.8,0-1.6,0-2.3c0-0.5-0.1-1.1,0.2-1.6c0,0,0,0,0,0c0.1,0.2,0.1,0.4,0.1,0.6c0,2.8,0,5.7,0,8.5
		C-2901,2142.1-2901,2142.4-2901,2142.6z"/>
	<path class="st34" d="M-2929.5,2134.4c0,0.9,0,1.8,0,2.7c-0.2,0.2-0.4,0.1-0.6,0.1c-0.9,0-1.7-0.2-2.6,0.1c-0.3,0.1-0.7,0-0.9-0.2
		c0-0.9,0-1.9,0-2.8c0.8,0.1,1.6-0.1,2.4-0.1C-2930.6,2134.2-2930.1,2134.4-2929.5,2134.4z"/>
	<path class="st35" d="M-2929.5,2139.2c0,0.7,0,1.4,0,2.2c0,0.2,0,0.3-0.3,0.3c-1.1,0-2.3,0-3.4-0.1c-0.3,0-0.4-0.1-0.4-0.4
		c0-0.6,0-1.2,0-1.8C-2932.2,2139-2930.9,2139.1-2929.5,2139.2z"/>
	<path class="st36" d="M-2929.5,2139.2c-0.6,0.1-1.2,0.1-1.8,0c-0.6-0.1-1.2,0.1-1.8,0.1c-0.2,0-0.3,0-0.5-0.1c0-0.7,0-1.5,0-2.2
		c1,0.2,2-0.2,3,0c0.4,0.1,0.7,0,1.1,0C-2929.5,2137.8-2929.5,2138.5-2929.5,2139.2z"/>
	<path class="st37" d="M-2929.5,2134.4c-0.5,0.3-1,0-1.5-0.1c-0.6-0.1-1.2,0.2-1.9,0.2c-0.3,0-0.5-0.1-0.8-0.2c0-1.5,0-1.5,1.5-1.5
		c0.9,0,1.7,0,2.6,0c0,0,0,0,0,0C-2929.5,2133.3-2929.5,2133.9-2929.5,2134.4z"/>
	<path class="st38" d="M-2933.6,2150.7c0-1.2,0-2.4,0-3.6c1.4,0.4,2.7,0.1,4.1,0.1c0,1.2,0,2.3,0,3.5c-0.3,0.2-0.6,0.1-0.8,0.1
		c-1,0.1-2,0-3,0C-2933.4,2150.8-2933.5,2150.8-2933.6,2150.7z"/>
	<path class="st9" d="M-2881.2,2128.4c0,1.2,0,1.2-1.2,1.2c-5.8,0-11.5,0-17.3,0c-1.1,0-0.9,0.1-0.9-0.9c0-0.1,0-0.2,0-0.2
		c0.2-0.2,0.5-0.2,0.8-0.2c5.9,0,11.9,0,17.8,0C-2881.7,2128.2-2881.4,2128.2-2881.2,2128.4z"/>
	<path class="st39" d="M-2881.2,2128.4c-6.5,0-12.9,0-19.4,0c0-0.3,0-0.6,0-0.9c6.5,0,12.9,0,19.4,0
		C-2881.2,2127.8-2881.2,2128.1-2881.2,2128.4z"/>
	<path class="st28" d="M-2895.4,2120.3c0,0.6,0,1.2,0,1.8c-0.2,0.2-0.4,0.2-0.7,0.2c-1.3,0-2.6,0-3.8,0c-0.2,0-0.5,0-0.7-0.2
		c0-0.6,0-1.2,0-1.8c0.2-0.2,0.4-0.2,0.7-0.2c1.3,0,2.6,0,3.8,0C-2895.8,2120.2-2895.6,2120.2-2895.4,2120.3z"/>
	<path class="st31" d="M-2900.5,2122.1c1.7,0,3.4,0,5.2,0c0,0.6,0,1.2,0,1.8c-0.2,0.2-0.4,0.2-0.7,0.2c-1.3,0-2.6,0-3.8,0
		c-0.2,0-0.5,0-0.7-0.2C-2900.5,2123.3-2900.5,2122.7-2900.5,2122.1z"/>
	<path class="st24" d="M-2895.4,2117.2c0,0.5,0,1.1,0,1.6c-0.2,0.2-0.4,0.2-0.7,0.2c-1.3,0-2.6,0-3.8,0c-0.2,0-0.5,0-0.7-0.2
		c0-0.5,0-1.1,0-1.6c0.2-0.2,0.4-0.2,0.7-0.2c1.3,0,2.6,0,3.8,0C-2895.8,2117-2895.6,2117-2895.4,2117.2z"/>
	<path class="st40" d="M-2900.5,2118.8c1.7,0,3.4,0,5.1,0c0,0.5,0,1,0,1.5c-1.7,0-3.4,0-5.1,0
		C-2900.5,2119.8-2900.5,2119.3-2900.5,2118.8z"/>
	<path class="st22" d="M-2900.5,2123.9c1.7,0,3.4,0,5.2,0c0,0.4,0,0.9,0,1.3c-0.2,0.2-0.4,0.2-0.7,0.2c-1.3,0-2.6,0-3.8,0
		c-0.2,0-0.5,0-0.7-0.2C-2900.5,2124.7-2900.5,2124.3-2900.5,2123.9z"/>
	<path class="st16" d="M-2895.4,2117.2c-1.7,0-3.4,0-5.1,0c0-0.4,0-0.9,0-1.3c0.2-0.2,0.4-0.2,0.7-0.2c1.3,0,2.6,0,3.8,0
		c0.2,0,0.5,0,0.7,0.2C-2895.4,2116.3-2895.4,2116.7-2895.4,2117.2z"/>
	<path class="st25" d="M-2900.5,2125.1c1.7,0,3.4,0,5.2,0c0,1.5,0.2,1.3-1.3,1.3c-1.3,0-2.6,0-3.8,0
		C-2900.5,2126-2900.5,2125.6-2900.5,2125.1z"/>
	<path class="st14" d="M-2895.4,2115.9c-1.7,0-3.4,0-5.1,0c0-0.3,0-0.5,0-0.8c1.7,0,3.4,0,5.1,0
		C-2895.4,2115.3-2895.4,2115.6-2895.4,2115.9z"/>
	<path class="st14" d="M-2925.2,2114.8c0,0.4,0,0.8,0,1.2c-0.2,0.2-0.4,0.2-0.7,0.2c-1.3,0-2.6,0-3.8,0c-0.2,0-0.5,0-0.7-0.2
		c0-0.4,0-0.8,0-1.2C-2928.6,2114.8-2926.9,2114.8-2925.2,2114.8z"/>
	<path class="st33" d="M-2915.3,2143.4c0.9-0.1,1.9,0,2.8-0.3c0,0,0.1,0,0.1,0c0.5,0.6,1.2,0.2,1.7,0.2c0.5,0,1.1,0,1.6,0
		c1,0,2.1,0,3.1,0c1.1,0,2.3,0,3.4,0c1,0,1.9,0,2.9-0.1c0.7-0.1,1.5,0,2.2,0c0.8,0,1.6,0.2,2.5,0c0.2,0,0.3,0,0.5,0
		c0.5,0.2,1,0.3,1.5,0.1c0.2-0.1,0.3-0.1,0.5,0c0.5,0.2,1,0.1,1.4-0.2c0,0.4,0,0.9,0,1.3c-0.8,0-1.5,0.1-2.3,0c-1-0.1-2.1,0-3.2,0
		c-1-0.1-2.1,0.1-3.1-0.1c-0.4-0.1-0.8,0.1-1.2,0.1c-1.9,0-3.8,0-5.7,0c-1.4,0-2.8,0-4.2,0c-0.8,0-1.6,0-2.4-0.1
		c-0.5,0-0.9,0-1.3,0.1c-0.3,0-0.6,0-0.8-0.2C-2915.3,2144-2915.3,2143.7-2915.3,2143.4z"/>
	<path class="st41" d="M-2891,2144.9c0,0.7-0.1,0.8-0.9,0.7c-0.6-0.1-1.3-0.1-1.9,0.1c-0.1,0-0.2,0.1-0.3,0.1
		c-0.4-0.2-0.7-0.1-1.1-0.1c-0.3,0.1-0.7,0.1-1-0.1c-0.1-0.1-0.3-0.1-0.4,0c-0.3,0.2-0.7,0.2-0.9,0.1c-0.6-0.3-1.2-0.1-1.8-0.1
		c-1.2,0-2.4-0.1-3.6,0c-0.8,0.1-1.7-0.3-2.5,0.1c-0.2,0.1-0.5-0.2-0.8-0.2c-1,0-1.9,0.2-2.9,0c-0.5,0.6-1.1-0.1-1.7,0.1
		c-0.6,0.2-1.2-0.2-1.8,0c-0.8,0.2-1.7-0.3-2.5,0.1c-0.2,0.1-0.2-0.1-0.2-0.2c0-0.2,0-0.4,0-0.6c0.6-0.2,1.2-0.2,1.8-0.1
		c0.2,0,0.3,0.1,0.5,0.1c1-0.1,1.9,0,2.8,0c0.3,0,0.7-0.1,1,0c0.2,0,0.4,0.1,0.5,0c0.7-0.4,1.5-0.2,2.2-0.2c0.9,0,1.8,0,2.7,0.1
		c0.7,0.1,1.5,0.2,2.3-0.1c0.1,0,0.2-0.1,0.3,0c0.8,0.4,1.7,0,2.6,0.1c0.6,0.1,1.3-0.1,2-0.1c0.7,0,1.5,0,2.2,0c0.4,0,0.8,0.1,1.2,0
		C-2892.4,2144.4-2891.7,2144.8-2891,2144.9z"/>
	<path class="st41" d="M-2891,2144.9c-0.3,0.1-0.6,0.1-0.9,0c-0.5-0.3-1.1-0.2-1.6,0c-0.3,0.1-0.5-0.1-0.8-0.1
		c-0.4-0.1-0.9,0.3-1.2,0.2c-0.8-0.4-1.6-0.2-2.3-0.1c-0.9,0.2-1.8-0.3-2.6,0.2c0,0-0.1,0-0.2,0c-0.5-0.5-1-0.1-1.5-0.1
		c-0.7,0-1.4-0.1-2.1-0.1c-0.5,0-1.1,0.1-1.6,0c-0.6-0.1-1.1,0-1.7,0c-0.4,0-0.8,0-1.2,0.1c-0.1,0-0.2,0.1-0.3,0.1
		c-0.8-0.4-1.8,0.1-2.6-0.2c-0.2-0.1-0.4,0-0.7,0c-0.5,0.1-1,0.1-1.5-0.1c-0.5-0.2-1.1,0.1-1.7,0c0-0.2,0-0.3,0-0.5
		c1.1,0,2.2,0,3.3,0c0.4,0,0.8,0.2,1.1,0.1c1-0.3,2,0,3-0.1c0.9-0.1,1.8-0.1,2.7,0c0.3,0,0.6,0,0.9-0.1c1.2,0,2.3,0.2,3.5,0
		c1-0.2,2.1,0.1,3.1-0.1c0.4-0.1,0.9,0.1,1.3,0.1c0.9,0,1.9-0.2,2.7,0c0.8,0.1,1.7-0.2,2.5,0.2
		C-2891,2144.5-2891,2144.7-2891,2144.9z"/>
	<path class="st38" d="M-2905.2,2150.5c0-1.1,0-2.2,0-3.3c0.7,0.4,1.4,0.1,2,0.1c0.7,0,1.4,0,2,0.1c0,1,0,2,0,2.9
		c-0.6,0.5-1.2,0.5-1.9,0.3c-0.3-0.1-0.5-0.1-0.7,0C-2904.2,2150.7-2904.7,2150.7-2905.2,2150.5z"/>
	<path class="st34" d="M-2901.1,2134.4c0,0.8,0,1.6,0,2.3c-0.6,0.3-1.3,0.3-2,0.3c-0.7,0-1.4,0-2.1-0.2c0-0.9,0-1.7,0-2.6
		c0.2-0.2,0.6-0.3,0.8-0.2c0.9,0.3,1.8,0.1,2.7,0.1C-2901.5,2134.2-2901.3,2134.3-2901.1,2134.4z"/>
	<path class="st42" d="M-2901.1,2138.6c0,0.8,0,1.6,0,2.3c-0.9,0-1.8-0.1-2.7-0.1c-0.2,0-0.3,0-0.5,0c-0.9,0.1-0.9,0.1-0.9-0.8
		c0-0.5,0-0.9,0-1.4c0.6-0.3,1.2-0.2,1.8-0.1C-2902.6,2138.5-2901.9,2138.4-2901.1,2138.6z"/>
	<path class="st43" d="M-2901.1,2138.6c-0.8,0.2-1.5,0-2.3,0c-0.6,0-1.2,0-1.8,0c0-0.6,0-1.2,0-1.8c0.5-0.1,1-0.1,1.5,0
		c0.9,0.2,1.7-0.1,2.6-0.1C-2901.1,2137.4-2901.1,2138-2901.1,2138.6z"/>
	<path class="st37" d="M-2901.1,2134.4c-0.8-0.1-1.6,0.1-2.5,0c-0.5-0.1-1.1-0.2-1.6-0.1c0-1.5,0-1.5,1.5-1.5c0.9,0,1.7,0,2.6,0
		C-2901.1,2133.3-2901.1,2133.9-2901.1,2134.4z"/>
	<path class="st26" d="M-2930.3,2121.9c0-0.6,0-1.2,0-1.8c0.2-0.2,0.4-0.2,0.7-0.2c1.3,0,2.6,0,3.8,0c0.2,0,0.5,0,0.7,0.2
		c0,0.6,0,1.2,0,1.8c-0.2,0.2-0.4,0.2-0.7,0.2c-1.3,0-2.6,0-3.8,0C-2929.9,2122-2930.1,2122-2930.3,2121.9z"/>
	<path class="st27" d="M-2930.3,2121.9c1.7,0,3.4,0,5.1,0c0,0.5,0,1.1,0,1.6c-0.2,0.2-0.4,0.2-0.7,0.2c-1.3,0-2.6,0-3.8,0
		c-0.2,0-0.5,0-0.7-0.2C-2930.3,2123-2930.3,2122.4-2930.3,2121.9z"/>
	<path class="st9" d="M-2925.2,2128c0,0.5,0.2,1.2-0.1,1.5c-0.3,0.4-1,0.1-1.5,0.1c-1,0-1.9,0-2.9,0c-0.5,0-0.7-0.2-0.6-0.7
		c0-0.3,0-0.7,0-1c0.2-0.2,0.4-0.2,0.7-0.2c1.3,0,2.6,0,3.8,0C-2925.6,2127.8-2925.3,2127.8-2925.2,2128z"/>
	<path class="st22" d="M-2930.3,2123.5c1.7,0,3.4,0,5.2,0c0,0.5,0,1.1,0,1.6c-0.2,0.2-0.4,0.2-0.7,0.2c-1.3,0-2.6,0-3.8,0
		c-0.2,0-0.5,0-0.7-0.2C-2930.3,2124.6-2930.3,2124.1-2930.3,2123.5z"/>
	<path class="st29" d="M-2930.3,2116c1.7,0,3.4,0,5.1,0c0,0.5,0,1,0,1.5c-0.2,0.2-0.4,0.2-0.7,0.2c-1.3,0-2.6,0-3.8,0
		c-0.2,0-0.5,0-0.7-0.2C-2930.3,2117-2930.3,2116.5-2930.3,2116z"/>
	<path class="st25" d="M-2930.3,2125.1c1.7,0,3.4,0,5.2,0c0,0.5,0,1,0,1.5c-0.2,0.2-0.4,0.2-0.7,0.2c-1.3,0-2.6,0-3.8,0
		c-0.2,0-0.5,0-0.7-0.2C-2930.3,2126.2-2930.3,2125.7-2930.3,2125.1z"/>
	<path class="st11" d="M-2930.3,2126.7c1.7,0,3.4,0,5.2,0c0,0.4,0,0.9,0,1.3c-1.7,0-3.4,0-5.2,0
		C-2930.3,2127.5-2930.3,2127.1-2930.3,2126.7z"/>
	<path class="st40" d="M-2925.2,2120.1c-1.7,0-3.4,0-5.1,0c0-0.4,0-0.9,0-1.3c0.2-0.2,0.4-0.2,0.7-0.2c1.3,0,2.6,0,3.8,0
		c0.2,0,0.5,0,0.7,0.2C-2925.2,2119.2-2925.2,2119.7-2925.2,2120.1z"/>
	<path class="st24" d="M-2925.2,2118.8c-1.7,0-3.4,0-5.1,0c0-0.4,0-0.9,0-1.3c1.7,0,3.4,0,5.1,0
		C-2925.2,2118-2925.2,2118.4-2925.2,2118.8z"/>
	<path class="st44" d="M-2933.6,2150.7c1.4-0.1,2.7,0,4.1,0c0,0.9,0,1.8,0,2.7c0,0.4-0.1,0.4-0.5,0.4c-0.9,0-1.7-0.2-2.5-0.2
		c0,0-0.1,0-0.1,0c-1,0.3-1,0.3-1-0.7C-2933.6,2152.2-2933.6,2151.5-2933.6,2150.7z"/>
	<path class="st45" d="M-2905.2,2150.5c0.4,0,0.8-0.2,1.2,0.1c0.6-0.6,1.2,0.2,1.8,0c0.4-0.1,0.8-0.1,1.1-0.2c0,0.8,0,1.6,0,2.3
		c-0.5,0.2-1.1,0.3-1.7,0.2c-0.7,0-1.5-0.1-2.2,0c-0.1,0-0.1,0-0.2-0.1C-2905.2,2152-2905.2,2151.3-2905.2,2150.5z"/>
	<path class="st46" d="M-2905.2,2152.8c0.7-0.2,1.4-0.2,2.2,0c0.7,0.1,1.3-0.3,1.9-0.1c0,0.5,0,1.1,0,1.6c0,0.3-0.1,0.5-0.4,0.4
		c-0.5-0.2-1.1,0-1.7-0.2c-0.3-0.1-0.9,0.1-1.3,0.2c-0.5,0-0.7-0.2-0.6-0.7C-2905.2,2153.6-2905.2,2153.2-2905.2,2152.8z"/>
</g>
</svg>
