<?xml version="1.0" encoding="utf-8"?>
<!-- Generator: Adobe Illustrator 19.1.0, SVG Export Plug-In . SVG Version: 6.00 Build 0)  -->
<svg version="1.1" id="Layer_1" xmlns="http://www.w3.org/2000/svg" xmlns:xlink="http://www.w3.org/1999/xlink" x="0px" y="0px"
	 viewBox="-3018 2088 200 76" style="enable-background:new -3018 2088 200 76;" xml:space="preserve">
<style type="text/css">
	.st0{fill:#FDFDFD;}
	.st1{fill:#2E2E2E;}
	.st2{fill:#626262;}
	.st3{fill:#848484;}
	.st4{fill:#2F2F2F;}
	.st5{fill:#303030;}
	.st6{fill:#646464;}
	.st7{fill:#636363;}
	.st8{fill:#666666;}
	.st9{fill:#333333;}
	.st10{fill:#656565;}
	.st11{fill:#6F6F6F;}
	.st12{fill:#898989;}
	.st13{fill:#868686;}
	.st14{fill:#8D8D8D;}
	.st15{fill:#909090;}
	.st16{fill:#858585;}
	.st17{fill:#878787;}
	.st18{fill:#838383;}
	.st19{fill:#949494;}
	.st20{fill:#999999;}
	.st21{fill:#8B8B8B;}
	.st22{fill:#808080;}
	.st23{fill:#FAFAFA;}
	.st24{fill:#FEFEFE;}
	.st25{fill:#FCFCFC;}
	.st26{fill:#F5F5F5;}
	.st27{fill:#F0F0F0;}
	.st28{fill:#FBFBFB;}
	.st29{fill:#F8F8F8;}
</style>
<g>
	<path class="st0" d="M-3009.3,2126.8c0-4.8,0-9.7,0-14.5c0.4,0,0.4,0.4,0.5,0.7c0.2,0.7,0.4,1.4,0.7,2.1c0.4-0.6,0.4-1.2,0.7-1.7
		c0.1-0.2,0.1-0.4,0.3-0.4c0.2,0,0.3,0.2,0.4,0.4c0.2,0.5,0.4,1.1,0.6,1.7c0.5-0.7,0.6-1.6,0.9-2.3c-0.2,0.4-0.3,0.8-0.4,1.3
		c-0.1,0.2-0.1,0.5-0.4,0.5c-0.3,0-0.4-0.3-0.5-0.5c-0.2-0.5-0.2-1-0.5-1.5c-0.4,0.4-0.4,0.9-0.5,1.3c-0.1,0.3-0.2,0.6-0.5,0.6
		c-0.3,0-0.3-0.3-0.4-0.6c-0.1-0.3-0.2-0.7-0.3-1c-0.1-0.3-0.1-0.6-0.5-0.7c0-1.3,0-2.7,0-4c0.7-0.2,1.3-0.5,1.6-1.3
		c0.3-0.6,2.1-0.5,2.5,0.1c0.1,0.1,0.2,0.3,0.2,0.5c0.1,0.2,0.3,0.5,0.6,0.4c0.4-0.1,0.2-0.4,0.1-0.7c-0.5-1.5-1-3-1.6-4.5
		c-0.1-0.3-0.3-0.7-0.7-0.7c-0.4,0-0.6,0.3-0.7,0.7c-0.5,1.4-1,2.7-1.5,4.1c-0.1,0.3-0.1,0.8-0.7,0.9c0-14.4,0-28.7,0-43.1
		c0-0.6,0.1-0.7,0.7-0.7c61.9,0,123.8,0,185.7,0c0.6,0,0.7,0.1,0.7,0.7c0,41.1,0,82.3,0,123.4c0,0.6-0.1,0.7-0.7,0.7
		c-61.9,0-123.8,0-185.7,0c-0.6,0-0.7-0.1-0.7-0.7c0-13.3,0-26.5,0-39.8c0.5,0,0.5,0.5,0.7,0.7c0.8,1.2,2.4,1.7,3.6,1
		c0.3-0.2,0.6-0.4,0.4-0.8c-0.2-0.4-0.5-0.2-0.8-0.1c-1.3,0.5-2.4-0.2-2.5-1.6c0-0.3,0-0.7,0-1c0.1-1.4,1.1-2,2.4-1.6
		c0.1,0,0.2,0.1,0.2,0.1c0.4,0.1,0.6,0.1,0.8-0.3c0.1-0.4-0.1-0.5-0.4-0.6c-1.3-0.5-2.8-0.4-3.7,1.2c-0.2,0.3-0.1,0.7-0.6,0.7
		c0-4.8,0-9.7,0-14.5c0.6,0.1,0.5,0.7,0.6,1.1c1,3.4,3.2,5.5,6.7,6c1.9,0.3,3.8,0,5.6-0.8c2.4-1.1,2.4-1.1,2.4-3.7
		c0-1.7,0-3.4,0-5.1c0-0.7-0.3-1-1-1c-1.6,0-3.3,0-4.9,0c-0.7,0-0.9,0.2-0.9,0.9c0,2.4-0.2,2,2,2.1c1.4,0,1.5,0.1,1.5,1.5
		c0,0.2,0,0.3,0,0.5c0,1.7-0.3,2.1-2,2.4c-2.5,0.5-4.9-0.8-5.7-3.3c-0.7-2.1-0.7-4.1,0.1-6.2c1.2-3,4.6-4,7.3-2.2
		c0.9,0.6,0.9,0.6,1.6-0.2c0.3-0.4,0.7-0.9,1-1.3c0.3-0.3,0.2-0.6-0.1-0.9c-0.2-0.2-0.4-0.3-0.6-0.4c-5-2.7-11.2-0.8-12.9,5.1
		C-3008.8,2126.2-3008.7,2126.7-3009.3,2126.8z"/>
	<path class="st1" d="M-3009.3,2126.8c0.3-0.2,0.3-0.5,0.3-0.8c2.1-7.7,10.4-8,14.2-4.9c0.5,0.4,0.5,0.6,0.1,1
		c-0.6,0.7-1.1,1.4-1.6,2.1c-0.2,0.3-0.4,0.4-0.7,0.1c-0.8-0.7-1.7-1.1-2.7-1.3c-2-0.3-3.7,0.5-4.6,2.3c-1.4,2.6-1.3,5.2,0.1,7.7
		c1.2,2.1,4.1,2.7,6.2,1.6c0.1-0.1,0.3-0.1,0.4-0.2c0.1-0.1,0.2-3.1,0.1-3.2c-0.2-0.2-0.4-0.1-0.6-0.1c-0.7,0-1.4,0-2.2,0
		c-0.6,0-0.7-0.2-0.7-0.7c0-0.7,0-1.5,0-2.2c0-0.4,0.1-0.5,0.5-0.5c2,0,4.1,0,6.1,0c0.5,0,0.6,0.2,0.6,0.6c0,2.6,0,5.1,0,7.7
		c0,0.3,0,0.5-0.3,0.7c-3.6,2.7-9.2,3.1-12.6-0.2c-1.2-1.2-1.9-2.6-2.3-4.2c-0.1-0.3,0-0.7-0.3-0.9
		C-3009.3,2129.8-3009.3,2128.3-3009.3,2126.8z"/>
	<path class="st1" d="M-3009.3,2145.9c0.1-0.3,0.3-0.6,0.4-0.8c0.8-1.6,3-2.2,4.4-1.1c0.3,0.2,0.5,0.5,0.1,0.8
		c-0.3,0.2-0.3,0.9-0.9,0.4c-1.1-0.8-2.2-0.3-2.4,1c-0.1,0.5-0.1,1.1,0,1.6c0.3,1.2,1.4,1.6,2.4,0.9c0.7-0.5,0.7,0.1,1,0.4
		c0.4,0.4,0,0.6-0.2,0.8c-1.4,1.1-3.5,0.6-4.4-1c-0.1-0.2-0.1-0.6-0.4-0.7C-3009.3,2147.4-3009.3,2146.6-3009.3,2145.9z"/>
	<path class="st2" d="M-3009.3,2107.6c0.8-1.6,1.2-3.3,1.9-5c0.2-0.5,0.2-1,1-0.9c0.5,0,0.6,0.2,0.8,0.6c0.6,1.7,1.2,3.3,1.7,5
		c0.1,0.2,0.4,0.6,0,0.7c-0.4,0.1-0.9,0.3-1.2-0.3c-0.2-0.3-0.1-0.9-0.5-1c-0.5-0.1-1.1,0-1.6-0.1c-0.2,0-0.4,0.1-0.4,0.3
		c-0.1,1.1-0.9,1-1.7,1.1C-3009.3,2108-3009.3,2107.8-3009.3,2107.6z"/>
	<path class="st3" d="M-3009.3,2112.1c0.5-0.2,0.5,0.1,0.6,0.4c0.2,0.6,0.3,1.2,0.7,1.8c0.2-0.6,0.3-1.1,0.5-1.7
		c0.1-0.3,0-0.7,0.4-0.7c0.3,0,0.3,0.4,0.4,0.7c0.2,0.6,0.3,1.2,0.5,1.9c0.5-0.9,0.4-1.9,1-2.6c0.3,0.1,0.2,0.4,0.2,0.5
		c-0.3,0.9-0.5,1.8-0.8,2.6c-0.1,0.2-0.1,0.4-0.3,0.3c-0.2,0-0.2-0.2-0.2-0.3c-0.3-0.7-0.3-1.4-0.7-2.2c-0.2,0.7-0.4,1.3-0.6,2
		c-0.1,0.2-0.1,0.5-0.4,0.5c-0.3,0-0.3-0.3-0.3-0.5c-0.3-0.9-0.4-1.8-0.9-2.7C-3009.3,2112.2-3009.3,2112.2-3009.3,2112.1z"/>
	<path class="st1" d="M-2822.3,2138.5c-1.5,0-2.8,0-4.1,0c-0.5,0-0.6-0.3-0.7-0.6c-0.9-1.6-1.9-3.2-2.7-4.8c-0.4-0.9-1-0.8-1.8-0.8
		c-1.1,0-1.1,0-1.1,1.1c0,1.5,0,2.9,0,4.4c0,0.5-0.1,0.7-0.7,0.7c-0.9,0-1.8,0-2.8,0c-0.5,0-0.6-0.1-0.6-0.6c0-5.9,0-11.9,0-17.8
		c0-0.3-0.1-0.6,0.4-0.6c2.8,0.1,5.7-0.2,8.5,0.2c2.8,0.4,4.5,2.1,4.9,4.7c0.5,2.9-0.5,5.4-2.9,6.7c-0.5,0.3-0.4,0.5-0.2,0.9
		C-2824.8,2134.2-2823.6,2136.3-2822.3,2138.5z"/>
	<path class="st1" d="M-2976.4,2138.5c-1.3,0-2.7,0-4.1,0c-0.4,0-0.4-0.3-0.6-0.6c-0.9-1.6-1.8-3.2-2.7-4.8
		c-0.3-0.7-0.7-0.9-1.5-0.9c-1.4,0.1-1.4,0-1.4,1.4c0,1.4,0,2.8,0,4.2c0,0.5-0.2,0.7-0.7,0.7c-0.8,0-1.7-0.1-2.5,0
		c-0.6,0-0.8-0.2-0.8-0.8c0-5.1,0-10.2,0-15.2c0-0.8,0-1.6,0-2.4c0-0.3,0-0.5,0.4-0.5c2.8,0.1,5.6-0.2,8.4,0.2c2.7,0.4,4.5,2,5,4.5
		c0.6,3.1-0.4,5.6-2.8,7c-0.4,0.3-0.5,0.4-0.2,0.8c1.2,2,2.3,3.9,3.4,5.9C-2976.5,2138.1-2976.3,2138.2-2976.4,2138.5z"/>
	<path class="st1" d="M-2885.3,2129c0,2.7-0.7,5.2-2.5,7.3c-3.5,3.9-11,3.6-13.6-2.2c-1.5-3.3-1.5-6.8,0.1-10.1
		c1.5-3.2,4.6-4.9,8.1-4.7c3.4,0.2,6.2,2.5,7.3,5.9c0.2,0.6,0.4,1.3,0.5,1.9C-2885.3,2127.7-2885.3,2128.4-2885.3,2129z"/>
	<path class="st1" d="M-2919.3,2129c0-2.9,0-5.8,0-8.7c0-0.6,0.1-0.7,0.7-0.7c0.9,0,1.7,0,2.6,0c0.5,0,0.7,0.1,0.7,0.7
		c0,2,0,4.1,0,6.1c0,0.7,0.2,0.8,0.8,0.8c1.5,0,3-0.1,4.5,0c0.8,0,0.9-0.2,0.9-0.9c0-2,0-4,0-6c0-0.6,0.1-0.8,0.7-0.7
		c0.9,0.1,1.7,0,2.6,0c0.5,0,0.6,0.1,0.6,0.6c0,5.9,0,11.8,0,17.7c0,0.5-0.1,0.7-0.6,0.6c-0.9,0-1.7,0-2.6,0c-0.6,0-0.7-0.1-0.7-0.7
		c0-2.1,0-4.2,0-6.2c0-0.6-0.1-0.8-0.7-0.8c-1.6,0-3.2,0-4.8,0c-0.5,0-0.6,0.2-0.6,0.6c0,2.1,0,4.3,0,6.4c0,0.5-0.1,0.7-0.7,0.7
		c-0.9,0-1.7,0-2.6,0c-0.6,0-0.7-0.1-0.7-0.7C-2919.3,2134.9-2919.3,2131.9-2919.3,2129z"/>
	<path class="st1" d="M-2852,2129c0-2.9,0-5.8,0-8.7c0-0.5,0.1-0.7,0.7-0.7c3.6,0,7.3,0,10.9,0c0.5,0,0.7,0.2,0.7,0.7
		c0,0.7-0.1,1.4,0,2.1c0.1,0.8-0.2,0.9-0.9,0.9c-2.2,0-4.4,0-6.7,0c-0.5,0-0.7,0.1-0.7,0.7c0.1,0.9,0,1.8,0,2.8
		c0,0.5,0.2,0.6,0.6,0.6c2,0,4,0,6,0c0.5,0,0.7,0.1,0.7,0.7c-0.1,0.8,0,1.6,0,2.3c0,0.5-0.2,0.6-0.6,0.6c-2,0-4,0-6,0
		c-0.5,0-0.7,0.1-0.7,0.7c0,0.9,0,1.9,0,2.9c0,0.6,0.2,0.7,0.7,0.7c2.3,0,4.7,0,7,0c0.5,0,0.7,0.1,0.7,0.7c-0.1,0.7-0.1,1.5,0,2.2
		c0.1,0.6-0.2,0.7-0.7,0.7c-3.6,0-7.2,0-10.8,0c-0.7,0-0.8-0.2-0.8-0.8C-2852,2134.8-2852,2131.9-2852,2129z"/>
	<path class="st1" d="M-2940.4,2129c0-2.9,0-5.8,0-8.7c0-0.6,0.2-0.7,0.7-0.7c3.6,0,7.2,0,10.8,0c0.5,0,0.7,0.1,0.7,0.7
		c0,0.8,0,1.6,0,2.3c0,0.5-0.2,0.6-0.6,0.6c-2.3,0-4.6,0-6.8,0c-0.7,0-0.8,0.2-0.8,0.8c0.1,0.9,0,1.7,0,2.6c0,0.5,0.1,0.6,0.6,0.6
		c2,0,3.9,0,5.9,0c0.6,0,0.9,0.1,0.8,0.7c-0.1,0.9,0.4,2.2-0.2,2.7c-0.5,0.5-1.8,0.1-2.7,0.1c-1.2,0-2.5,0-3.7,0
		c-0.5,0-0.7,0.1-0.7,0.7c0,0.9,0,1.9,0,2.9c0,0.6,0.2,0.7,0.7,0.7c2.3,0,4.7,0,7,0c0.6,0,0.8,0.2,0.7,0.7c-0.1,0.9,0.4,2.2-0.2,2.7
		c-0.5,0.5-1.8,0.1-2.7,0.1c-2.9,0-5.8,0-8.6,0c-0.6,0-0.8-0.1-0.8-0.8C-2940.4,2134.8-2940.4,2131.9-2940.4,2129z"/>
	<path class="st1" d="M-2959.7,2138.5c-2,0-2,0-2.6-1.8c-0.3-0.7-0.3-1.8-0.8-2.1c-0.6-0.4-1.6-0.1-2.4-0.1c-1.2,0-2.3,0-3.5,0
		c-0.5,0-0.7,0.2-0.8,0.6c-0.3,1-0.6,1.9-0.9,2.9c-0.1,0.5-0.4,0.7-0.9,0.7c-0.8,0-1.7-0.1-2.5,0c-0.7,0-0.8-0.2-0.6-0.8
		c1.7-4.8,3.4-9.6,5.1-14.4c0.4-1.1,0.8-2.2,1.2-3.3c0.1-0.4,0.3-0.5,0.7-0.5c0.9,0,1.8,0,2.7,0c0.4,0,0.6,0.1,0.7,0.5
		c2.1,6,4.2,12,6.4,18c0.2,0.5,0,0.6-0.4,0.6C-2958.7,2138.5-2959.2,2138.5-2959.7,2138.5z"/>
	<path class="st1" d="M-2882.6,2129c0-2.9,0-5.8,0-8.6c0-0.6,0.1-0.8,0.8-0.8c2.4,0.1,4.8-0.2,7.2,0.2c3.3,0.5,5.3,2.8,5.4,6.2
		c0.1,3.5-1.8,5.9-5.1,6.7c-1.2,0.3-2.4,0.2-3.6,0.2c-0.5,0-0.6,0.1-0.6,0.6c0,1.5,0,3,0,4.5c0,0.5-0.1,0.7-0.7,0.7
		c-0.9,0-1.7,0-2.6,0c-0.6,0-0.7-0.2-0.7-0.7C-2882.6,2134.9-2882.6,2131.9-2882.6,2129z"/>
	<path class="st1" d="M-2867.2,2129c0-2.9,0-5.8,0-8.7c0-0.3-0.2-0.7,0.4-0.7c2.5,0.1,5-0.2,7.5,0.2c3.3,0.5,5.3,2.8,5.3,6.2
		c0.1,3.5-1.9,6-5.2,6.6c-1.1,0.2-2.3,0.2-3.4,0.2c-0.5,0-0.7,0.1-0.7,0.7c0,1.4,0,2.9,0,4.3c0,0.7-0.2,0.8-0.8,0.8
		c-0.7-0.1-1.5-0.1-2.2,0c-0.8,0.1-0.9-0.2-0.9-0.9C-2867.2,2134.7-2867.2,2131.8-2867.2,2129z"/>
	<path class="st1" d="M-2957.3,2129.2c0-3.2,0.8-5.9,3.2-8c3-2.6,8.1-2.5,11,0.1c0.4,0.3,0.5,0.6,0.1,1c-0.6,0.6-1.1,1.3-1.6,2
		c-0.3,0.4-0.5,0.5-0.9,0.1c-0.8-0.8-1.8-1.4-3.1-1.5c-1.6-0.1-2.9,0.6-3.7,2c-1.5,2.6-1.5,5.3-0.1,7.9c1.3,2.5,4.2,2.9,6.5,1
		c0.9-0.7,0.9-0.7,1.7,0.2c0.3,0.4,0.6,0.8,1,1.2c0.6,0.5,0.4,0.9-0.1,1.3c-2.5,2.2-5.4,2.7-8.5,1.8c-3.1-1-4.7-3.4-5.4-6.4
		C-2957.2,2131-2957.2,2130.1-2957.3,2129.2z"/>
	<path class="st1" d="M-2923.9,2146.4c-0.3,1.1-0.7,2.2-0.9,3.3c-0.1,0.5-0.3,0.6-0.8,0.6c-0.5,0-0.7-0.1-0.8-0.6
		c-0.5-1.8-1-3.7-1.5-5.5c-0.1-0.2-0.4-0.7,0.1-0.7c0.4,0,1.1-0.4,1.4,0.4c0.3,1.2,0.6,2.5,1,3.9c0.4-1.4,0.8-2.6,1-3.8
		c0.1-0.5,0.4-0.6,0.8-0.6c0.5,0,0.6,0.2,0.8,0.6c0.3,1.2,0.6,2.3,1,3.8c0.3-1.3,0.6-2.4,0.9-3.5c0.2-0.8,0.7-1,1.4-0.8
		c0.4,0.1,0.2,0.3,0.1,0.5c-0.6,2-1.1,4-1.7,6c-0.1,0.6-0.5,0.4-0.9,0.4c-0.4,0.1-0.6-0.1-0.7-0.5c-0.3-1.1-0.6-2.3-1-3.4
		C-2923.8,2146.4-2923.8,2146.4-2923.9,2146.4z"/>
	<path class="st4" d="M-2860.7,2146.2c0.4-0.8,0.9-1.4,1.1-2.1c0.3-0.8,1-0.6,1.5-0.5c0.6,0.1,0.3,0.6,0.3,0.9c0,1.7,0,3.3,0,5
		c0,0.6,0,0.9-0.8,0.9c-0.8,0-0.7-0.4-0.7-0.9c0-1,0-1.9-0.1-3c-0.4,0.8-0.9,1.5-1.4,2.4c-0.5-0.9-1-1.6-1.4-2.4c0,0-0.1,0-0.1,0
		c0,1.1,0,2.2,0,3.2c0,0.6-0.2,0.6-0.7,0.6c-0.5,0-0.7,0-0.7-0.6c0-1.8,0-3.6,0-5.4c0-0.3-0.2-0.7,0.3-0.7c0.5,0,1.1-0.3,1.4,0.3
		C-2861.6,2144.6-2861.2,2145.3-2860.7,2146.2z"/>
	<path class="st4" d="M-2908.3,2146.2c0.5-0.8,0.8-1.5,1.2-2.2c0.2-0.3,0.3-0.5,0.7-0.5c1.1,0,1.1-0.1,1.1,1c0,1.7,0,3.4,0,5.1
		c0,0.6-0.2,0.7-0.7,0.7c-0.6,0-0.8-0.1-0.7-0.7c0-1.1,0-2.1-0.1-3.2c-0.5,0.8-0.9,1.5-1.4,2.5c-0.5-0.9-1-1.7-1.4-2.5
		c0,0-0.1,0-0.1,0c0,1.1,0,2.2,0,3.3c0,0.6-0.3,0.6-0.7,0.6c-0.4,0-0.7,0-0.7-0.6c0-1.8,0-3.6,0-5.4c0-0.3-0.2-0.7,0.3-0.8
		c0.5,0,1.1-0.3,1.4,0.4C-2909.2,2144.6-2908.8,2145.3-2908.3,2146.2z"/>
	<path class="st4" d="M-2882.1,2147c0-0.9,0-1.8,0-2.7c0-0.5,0-0.8,0.7-0.8c0.6,0,0.8,0.2,0.8,0.8c0,1.8,0,3.5,0,5.3
		c0,0.3,0.2,0.7-0.2,0.7c-0.4,0.1-0.9,0.2-1.2-0.3c-0.7-1.2-1.5-2.3-2.4-3.7c0,1.3,0,2.3,0,3.3c0,0.6-0.2,0.7-0.7,0.7
		c-0.5,0-0.7-0.1-0.7-0.7c0-1.8,0-3.5,0-5.3c0-0.3-0.3-0.8,0.3-0.8c0.5-0.1,1-0.2,1.4,0.4c0.6,1.1,1.3,2.1,2,3.1
		C-2882.2,2147-2882.1,2147-2882.1,2147z"/>
	<path class="st4" d="M-2948,2147.2c0-1.1,0-2.1,0-3c0-0.6,0.1-0.8,0.7-0.8c0.6,0,0.7,0.2,0.7,0.8c0,1.8,0,3.5,0,5.3
		c0,0.3,0.2,0.7-0.2,0.8c-0.4,0.1-0.9,0.2-1.2-0.3c-0.6-1-1.3-2-1.9-3c-0.1-0.1-0.2-0.3-0.4-0.5c-0.2,1.1-0.1,2.1-0.1,3.1
		c0,0.5-0.1,0.8-0.7,0.8c-0.7,0-0.7-0.3-0.7-0.8c0-1.7,0-3.5,0-5.2c0-0.3-0.2-0.7,0.2-0.8c0.4-0.1,1-0.2,1.3,0.3
		c0.6,1,1.3,1.9,1.9,2.9C-2948.4,2146.9-2948.3,2147-2948,2147.2z"/>
	<path class="st4" d="M-2834.1,2146.6c0,1,0,2,0,3c0,0.6-0.2,0.7-0.7,0.7c-0.5,0-0.8,0-0.8-0.7c0-1.8,0-3.6,0-5.4
		c0-0.3-0.2-0.7,0.3-0.8c0.4,0,1-0.2,1.3,0.3c0.6,1,1.3,2,2,3c0.1,0.1,0.1,0.2,0.3,0.4c0-1.2,0-2.2,0-3.2c0-0.5,0.2-0.6,0.7-0.6
		c0.4,0,0.8,0,0.8,0.6c0,1.8,0,3.6,0,5.4c0,0.3,0.3,0.8-0.3,0.8c-0.5,0.1-0.9,0.1-1.3-0.5c-0.6-1.1-1.4-2.2-2.1-3.2
		C-2833.9,2146.6-2834,2146.6-2834.1,2146.6z"/>
	<path class="st1" d="M-2986.3,2146.9c0-0.9,0-1.8,0-2.8c0-0.5,0.1-0.7,0.6-0.6c0.9,0.1,1.8-0.1,2.7,0.1c1.5,0.3,2,1.7,1,2.9
		c-0.2,0.3-0.2,0.4,0.1,0.6c0.7,0.5,0.8,1.2,0.6,1.9c-0.2,0.7-0.8,1.1-1.5,1.3c-1,0.2-2.1,0.1-3.1,0.1c-0.5,0-0.4-0.3-0.4-0.6
		C-2986.3,2148.8-2986.3,2147.8-2986.3,2146.9z"/>
	<path class="st1" d="M-2894.2,2147.3c0-1.2,0-2.2,0-3.1c0-0.5,0.1-0.8,0.7-0.7c0.5,0,0.8,0.1,0.7,0.7c0,1.8,0,3.6,0,5.4
		c0,0.3,0.2,0.7-0.2,0.7c-0.4,0-0.9,0.2-1.2-0.3c-0.7-1.2-1.5-2.3-2.4-3.7c0,1.2,0,2.2,0,3.2c0,0.5,0,0.9-0.7,0.9
		c-0.7,0-0.7-0.3-0.7-0.8c0-1.7,0-3.5,0-5.2c0-0.3-0.2-0.7,0.2-0.8c0.4-0.1,1-0.2,1.3,0.3c0.6,1,1.2,1.9,1.8,2.8
		C-2894.5,2146.8-2894.4,2147-2894.2,2147.3z"/>
	<path class="st4" d="M-2974.9,2150.2c-1.5,0.2-1.5,0.2-2.2-1c-0.1-0.1-0.1-0.3-0.2-0.4c-0.2-0.4-0.4-0.9-1-0.7
		c-0.5,0.2-0.1,0.7-0.3,1c-0.1,0.4,0.4,1-0.5,1.1c-0.7,0.1-1,0-1-0.9c0.1-1.7,0.1-3.5,0-5.2c0-0.6,0.2-0.8,0.8-0.8
		c0.8,0.1,1.6,0,2.4,0.1c0.9,0.1,1.5,0.6,1.7,1.5c0.2,0.9,0.1,1.8-0.7,2.4c-0.4,0.3-0.4,0.5-0.2,0.9
		C-2975.6,2148.9-2975.2,2149.5-2974.9,2150.2z"/>
	<path class="st1" d="M-2871.1,2146.9c0-2.3,1.5-3.8,3.6-3.4c0.2,0,0.4,0.1,0.7,0.2c1.5,0.6,2.2,2.4,1.7,4.3
		c-0.4,1.6-1.6,2.5-3.2,2.4C-2870,2150.3-2871.2,2148.9-2871.1,2146.9z"/>
	<path class="st1" d="M-2915.7,2150.4c-1.8,0-3.1-1.4-3-3.6c0-2,1.3-3.4,3.1-3.4c1.8,0,3.1,1.4,3.1,3.5
		C-2912.6,2149-2913.9,2150.4-2915.7,2150.4z"/>
	<path class="st1" d="M-2953.2,2146.9c0,2.5-2,4.1-4.1,3.3c-1.6-0.6-2.4-2.5-1.9-4.5c0.5-1.7,1.8-2.5,3.5-2.3
		C-2954.1,2143.7-2953.2,2145-2953.2,2146.9z"/>
	<path class="st1" d="M-2943,2146.9c0-2.4,1.5-3.8,3.6-3.5c1.2,0.2,2.1,1.1,2.4,2.5c0.4,1.6-0.2,3.3-1.4,4.1c-1,0.6-2.5,0.6-3.4-0.2
		C-2942.7,2149.1-2943.1,2148-2943,2146.9z"/>
	<path class="st1" d="M-2823.4,2148c-0.1,0.6,0.3,1.3-0.2,1.7c-0.8,0.6-1.8,0.8-2.8,0.6c-1.3-0.2-2.1-1-2.4-2.3
		c-0.3-1.5-0.2-2.9,1.1-3.9c1.1-0.9,2.3-0.9,3.5-0.3c0.3,0.1,0.9,0.2,0.5,0.7c-0.3,0.3-0.3,1-1.1,0.5c-1-0.6-2-0.2-2.4,0.9
		c-0.3,0.9-0.3,1.8,0.3,2.5c0.4,0.5,1,0.6,1.6,0.5c0.4-0.1,0.6-0.2,0.6-0.6c0-0.5,0-0.9-0.7-0.8c-0.5,0.1-0.6-0.2-0.6-0.6
		c0-0.5,0.2-0.7,0.6-0.6c0.1,0,0.2,0,0.3,0C-2823.4,2146.4-2823.4,2146.4-2823.4,2148z"/>
	<path class="st4" d="M-3003,2146.9c0-0.9,0-1.8,0-2.8c0-0.5,0.2-0.6,0.6-0.6c1.1,0,2.1,0,3.2,0c0.6,0,0.6,0.3,0.6,0.7
		c0,0.4,0,0.7-0.5,0.6c-0.6,0-1.3,0-1.9,0c-0.6,0-0.5,0.4-0.5,0.7c0,0.4-0.1,0.8,0.5,0.7c0.4,0,0.9,0,1.3,0c0.5,0,0.8-0.1,0.8,0.6
		c0,0.6-0.3,0.7-0.8,0.7c-0.3,0-0.7,0-1,0c-0.7-0.1-0.8,0.3-0.8,0.9c0,0.5,0.2,0.6,0.6,0.6c0.5,0,1.1,0,1.6,0c0.4,0,0.7,0,0.7,0.6
		c0,0.6-0.2,0.7-0.7,0.7c-1,0-2,0-3,0c-0.5,0-0.7-0.1-0.7-0.7C-3002.9,2148.7-3003,2147.8-3003,2146.9z"/>
	<path class="st4" d="M-2903.8,2146.9c0-1,0-1.9,0-2.9c0-0.5,0.2-0.6,0.6-0.6c1.1,0,2.1,0,3.2,0c0.5,0,0.6,0.2,0.6,0.7
		c0,0.4,0,0.7-0.6,0.7c-0.6,0-1.2,0-1.7,0c-0.7-0.1-0.6,0.3-0.7,0.8c0,0.5,0.1,0.7,0.7,0.7c0.4,0,0.7,0,1.1,0c0.4,0,0.8-0.1,0.8,0.6
		c0,0.7-0.3,0.8-0.8,0.7c-0.3,0-0.6,0-0.9,0c-0.7-0.1-0.9,0.1-0.9,0.8c0,0.6,0.2,0.7,0.7,0.6c0.5,0,1,0,1.6,0
		c0.7-0.1,0.8,0.3,0.8,0.8c0,0.4-0.1,0.5-0.5,0.5c-1.1,0-2.2,0-3.4,0c-0.5,0-0.6-0.2-0.6-0.6
		C-2903.8,2148.7-2903.8,2147.8-2903.8,2146.9z"/>
	<path class="st4" d="M-2846.7,2145.9c0-0.5,0-1,0-1.6c0-0.6,0-0.9,0.8-0.9c0.7,0,0.7,0.3,0.7,0.8c0,1.3,0,2.6-0.1,3.9
		c-0.1,1.4-1,2.2-2.5,2.2c-1.5,0-2.4-0.7-2.6-2.2c-0.1-1.4,0-2.8-0.1-4.2c0-0.7,0.5-0.4,0.8-0.5c0.4,0,0.7,0,0.7,0.5
		c0,1.2,0,2.5,0,3.7c0,0.6,0.2,1.2,1,1.3c0.7,0.1,1.2-0.3,1.3-1.1C-2846.7,2147.3-2846.8,2146.6-2846.7,2145.9
		C-2846.8,2145.9-2846.8,2145.9-2846.7,2145.9z"/>
	<path class="st2" d="M-3001,2104.5c0,1.1,0,2,0,2.9c0,0.5-0.1,0.7-0.6,0.7c-0.5,0-0.7-0.2-0.7-0.7c0-1.6,0-3.2,0-4.7
		c0-0.3-0.2-0.7,0.3-0.8c0.4-0.1,0.9-0.2,1.2,0.4c0.6,1,1.3,2,2.1,2.9c0-0.9,0-1.7,0-2.6c0-0.4,0.1-0.7,0.6-0.7
		c0.6,0,0.7,0.2,0.7,0.7c0,1.6,0,3.2,0,4.8c0,0.2,0.2,0.6-0.3,0.7c-0.4,0.1-0.8,0.1-1.1-0.3c-0.6-1-1.2-1.9-1.8-2.8
		C-3000.7,2104.8-3000.8,2104.7-3001,2104.5z"/>
	<path class="st2" d="M-2978.4,2104.9c0-0.8,0-1.7,0-2.5c0-0.4,0.1-0.6,0.5-0.6c0.8,0,1.7-0.1,2.5,0.1c1.3,0.3,1.8,1.5,0.9,2.6
		c-0.3,0.3-0.1,0.4,0.1,0.5c0.6,0.4,0.7,1,0.6,1.7c-0.2,0.7-0.7,1.1-1.3,1.2c-0.9,0.2-1.9,0.1-2.8,0.1c-0.4,0-0.4-0.3-0.4-0.6
		C-2978.4,2106.6-2978.4,2105.8-2978.4,2104.9z"/>
	<path class="st4" d="M-2992,2146.8c0-0.9,0-1.8,0-2.8c0-0.4,0.1-0.6,0.6-0.6c1.1,0,2.2,0,3.3,0c0.6,0,0.5,0.3,0.5,0.7
		c0,0.3,0.1,0.7-0.5,0.7c-0.6,0-1.3,0-1.9,0c-0.7-0.1-0.5,0.4-0.6,0.8c0,0.4,0,0.7,0.6,0.7c0.4,0,0.9,0,1.3,0
		c0.7-0.1,0.8,0.3,0.8,0.8c0,0.4-0.2,0.5-0.5,0.5c-0.4,0-0.9,0-1.3,0c-0.6-0.1-0.8,0.1-0.8,0.8c0,0.7,0.3,0.7,0.8,0.7
		c0.5,0,1,0,1.6,0c0.5,0,0.7,0.1,0.6,0.6c0,0.5-0.1,0.7-0.6,0.7c-1,0-2.1,0-3.1,0c-0.6,0-0.7-0.2-0.6-0.7
		C-2992,2148.7-2992,2147.7-2992,2146.8z"/>
	<path class="st2" d="M-2960.6,2108c-1,0.3-1.7,0.1-2-0.8c0-0.1-0.1-0.3-0.2-0.4c-0.2-0.3-0.3-0.8-0.8-0.7c-0.6,0.1-0.3,0.6-0.3,0.9
		c0,0.7,0,1.2-0.9,1.1c-0.4-0.1-0.5-0.2-0.5-0.5c0-1.7,0-3.5,0-5.2c0-0.3,0-0.6,0.5-0.5c0.8,0,1.7-0.1,2.5,0.1
		c0.8,0.1,1.3,0.5,1.5,1.3c0.2,0.8,0.3,1.6-0.4,2.2c-0.5,0.4-0.5,0.7-0.2,1.2C-2961.2,2106.9-2960.9,2107.4-2960.6,2108z"/>
	<path class="st4" d="M-2856.2,2146.9c0-0.9,0-1.8,0-2.8c0-0.5,0.1-0.7,0.7-0.7c0.7,0.1,1.5-0.1,2.2,0.1c1.2,0.3,1.9,1.1,1.9,2.3
		c0,1.3-0.7,2.1-2,2.3c-0.1,0-0.1,0-0.2,0c-1.1-0.2-1.3,0.4-1.2,1.3c0.1,0.6-0.1,0.8-0.7,0.8c-0.6,0-0.8-0.2-0.7-0.8
		C-2856.2,2148.6-2856.2,2147.8-2856.2,2146.9z"/>
	<path class="st1" d="M-2968.6,2150.3c-0.6,0.1-0.9,0-1-0.6c-0.1-0.7-0.6-1-1.3-0.9c-0.2,0-0.3,0-0.5,0c-0.6-0.1-1,0.1-1.1,0.8
		c-0.1,0.9-0.8,0.7-1.4,0.7c-0.3,0-0.3-0.3-0.2-0.4c0.7-2,1.5-4,2.2-6.1c0.1-0.4,0.4-0.3,0.7-0.3c0.3,0,0.7-0.2,0.9,0.3
		c0.7,2.1,1.5,4.1,2.2,6.2C-2967.8,2150.6-2968.5,2150.1-2968.6,2150.3z"/>
	<path class="st2" d="M-2972.6,2104.9c0-2,1.2-3.3,3.1-3.2c0.1,0,0.2,0,0.3,0c1.5,0.3,2.4,1.9,2.1,3.7c-0.2,1.7-1.4,2.7-2.9,2.6
		c-1.5-0.1-2.6-1.3-2.6-3C-2972.6,2105.1-2972.6,2105-2972.6,2104.9z"/>
	<path class="st2" d="M-2954.3,2106.1c-0.1,0.5,0.3,1.2-0.5,1.5c-1,0.5-2.1,0.7-3.1,0.2c-1.4-0.7-2-2.7-1.2-4.4
		c0.6-1.5,2.3-2.1,3.8-1.5c0.8,0.3,0.9,0.6,0.3,1.2c-0.2,0.2-0.3,0.3-0.6,0.1c-0.6-0.4-1.2-0.5-1.8,0c-0.7,0.6-0.8,1.4-0.6,2.3
		c0.1,0.7,0.5,1.2,1.2,1.3c0.7,0.2,1.2-0.1,1.2-0.7c0-0.4-0.1-0.5-0.5-0.5c-0.5,0.1-0.6-0.2-0.6-0.7c0-0.6,0.3-0.5,0.7-0.5
		c0.1,0,0.1,0,0.2,0C-2954.3,2104.5-2954.3,2104.5-2954.3,2106.1z"/>
	<path class="st5" d="M-2935.6,2146.9c0-0.9,0-1.8,0-2.8c0-0.5,0.1-0.7,0.6-0.7c1.1,0,2.1,0,3.2,0c0.6,0,0.6,0.3,0.6,0.8
		c0,0.5-0.1,0.7-0.6,0.6c-0.5,0-1,0-1.5,0c-0.8,0-1.1,0.5-0.9,1.2c0.1,0.3,0.3,0.2,0.5,0.2c0.4,0,0.9,0,1.3,0c0.5,0,0.8,0,0.9,0.7
		c0,0.7-0.4,0.6-0.8,0.6c-1.8,0-1.8,0-1.8,1.8c0,0.6,0,0.9-0.8,0.9c-0.8,0-0.7-0.4-0.7-0.9
		C-2935.6,2148.6-2935.6,2147.7-2935.6,2146.9z"/>
	<path class="st4" d="M-2877,2146.9c0-3.2,2.7-4.1,4.6-3.1c0.3,0.2,0.9,0.3,0.4,0.9c-0.3,0.4-0.4,0.9-1.1,0.4
		c-0.8-0.6-1.7-0.3-2.1,0.6c-0.3,0.7-0.3,1.5-0.1,2.3c0.4,1.1,1.4,1.4,2.3,0.7c0.6-0.5,0.7,0.1,1,0.3c0.4,0.4,0.2,0.6-0.1,0.8
		c-0.9,0.7-2,0.8-3,0.4c-1.2-0.5-1.6-1.5-1.8-2.7C-2877,2147.3-2877,2147.1-2877,2146.9z"/>
	<path class="st2" d="M-2985.2,2101.8c0.4-0.1,0.7,0.1,0.8,0.6c0.6,1.7,1.2,3.3,1.7,5c0.1,0.2,0.4,0.6,0,0.7
		c-0.4,0.1-0.9,0.3-1.2-0.3c-0.2-0.3-0.1-0.9-0.5-0.9c-0.6-0.1-1.1-0.1-1.7,0c-0.4,0-0.4,0.4-0.4,0.7c-0.1,0.7-0.5,0.7-1.1,0.7
		c-0.3,0-0.5-0.1-0.4-0.5c0.7-1.8,1.3-3.6,1.9-5.4C-2985.8,2101.8-2985.6,2101.8-2985.2,2101.8z"/>
	<path class="st4" d="M-2842.7,2147.5c0-0.4,0-0.8,0-1.2c0-1.3,0-1.4-1.3-1.5c-0.6,0-0.4-0.4-0.4-0.7c0-0.3-0.2-0.7,0.4-0.7
		c1.3,0,2.6,0,4,0c0.7,0,0.4,0.5,0.4,0.8c0.1,0.4,0,0.6-0.5,0.6c-1.2,0-1.2,0.1-1.2,1.3c0,1.2,0,2.3,0,3.5c0,0.6-0.2,0.7-0.7,0.7
		c-0.5,0-0.8-0.1-0.8-0.7C-2842.6,2148.9-2842.7,2148.2-2842.7,2147.5z"/>
	<path class="st4" d="M-2966.2,2147.5c0-0.4,0-0.8,0-1.2c0-1.3,0-1.4-1.3-1.5c-0.5,0-0.4-0.4-0.4-0.6c0-0.3-0.2-0.7,0.4-0.7
		c1.3,0,2.6,0,4,0c0.7,0,0.4,0.5,0.5,0.8c0.1,0.4,0,0.6-0.5,0.6c-1.2,0-1.2,0.1-1.2,1.3c0,1.2,0,2.4,0,3.6c0,0.6-0.3,0.5-0.7,0.5
		c-0.4,0-0.8,0.1-0.7-0.5C-2966.2,2149-2966.2,2148.3-2966.2,2147.5z"/>
	<path class="st4" d="M-2995.8,2146.2c0,0.7,0,1.3,0,2c-0.1,0.6,0.2,0.8,0.8,0.7c0.4,0,0.8,0,1.2,0c0.5,0,0.8,0,0.8,0.6
		c0,0.6-0.2,0.7-0.8,0.7c-0.9,0-1.9,0-2.8,0c-0.5,0-0.6-0.1-0.6-0.6c0-1.9,0-3.8,0-5.7c0-0.6,0.3-0.5,0.7-0.5c0.4,0,0.8-0.1,0.7,0.5
		C-2995.8,2144.7-2995.8,2145.5-2995.8,2146.2z"/>
	<path class="st6" d="M-2991.3,2105.6c0-0.4,0-0.7,0-1.1c0.1-0.9,0.1-1.6-1.2-1.4c-0.5,0.1-0.4-0.4-0.4-0.7c0-0.3,0-0.6,0.4-0.6
		c1.2,0,2.4,0,3.5,0c0.5,0,0.5,0.3,0.5,0.6c0,0.4,0,0.7-0.5,0.6c-1-0.2-1.1,0.3-1.1,1.2c0.1,1,0,2,0,2.9c0,0.5,0.1,1-0.7,1
		c-0.8,0-0.6-0.5-0.6-0.9C-2991.3,2106.6-2991.3,2106.1-2991.3,2105.6z"/>
	<path class="st7" d="M-2946.4,2103.5c0,1.3,0,2.6,0,3.9c0,0.3,0.1,0.7-0.3,0.7c-0.5,0-0.3-0.4-0.3-0.7c0-1.6,0-3.2,0-4.8
		c0-0.2-0.2-0.6,0.2-0.7c0.3-0.1,0.5,0.1,0.7,0.4c0.9,1.4,1.8,2.8,2.9,4.4c0-1.3,0-2.4,0-3.5c0-0.3,0-0.5,0-0.8
		c0-0.3-0.1-0.5,0.4-0.5c0.4,0,0.3,0.3,0.3,0.6c0,1.7,0,3.4,0,5.1c0,0.2,0.1,0.5-0.2,0.6c-0.3,0.1-0.5-0.1-0.6-0.3
		c-0.8-1.2-1.6-2.4-2.4-3.6c-0.2-0.2-0.3-0.5-0.5-0.7C-2946.2,2103.4-2946.3,2103.5-2946.4,2103.5z"/>
	<path class="st8" d="M-2909.7,2104.9c0-0.8,0-1.7,0-2.5c0-0.4,0.1-0.6,0.5-0.6c0.9,0,1.8,0,2.8,0c0.2,0,0.5,0,0.5,0.3
		c0,0.4-0.3,0.3-0.5,0.3c-0.7,0-1.3,0-2,0c-0.5,0-0.7,0.1-0.6,0.6c0,1.8-0.2,1.4,1.4,1.5c0.3,0,0.6,0,1,0c0.3,0,0.5,0.1,0.5,0.4
		c0,0.3-0.2,0.3-0.4,0.3c-0.6,0-1.2,0-1.7,0c-0.5,0-0.7,0.1-0.7,0.6c0,1.6-0.1,1.6,1.5,1.6c0.4,0,0.9,0,1.3,0c0.2,0,0.4,0.1,0.4,0.3
		c0,0.2-0.1,0.3-0.3,0.3c-1.1,0-2.1,0-3.2,0c-0.4,0-0.3-0.3-0.3-0.6C-2909.7,2106.6-2909.7,2105.7-2909.7,2104.9z"/>
	<path class="st9" d="M-2887.5,2146.8c0,1,0,2,0,2.9c0,0.6-0.3,0.6-0.7,0.5c-0.4,0-0.8,0.1-0.8-0.5c0-1.9,0-3.8,0-5.8
		c0-0.7,0.4-0.5,0.8-0.5c0.4,0,0.7,0.1,0.7,0.6C-2887.5,2145-2887.5,2145.9-2887.5,2146.8z"/>
	<path class="st7" d="M-2921.5,2104.1c0-0.6,0-1.2,0-1.8c0-0.3,0-0.5,0.4-0.5c0.3,0,0.4,0.2,0.4,0.5c0,1.2,0,2.4,0,3.5
		c0,1,0.6,1.6,1.5,1.7c0.9,0,1.5-0.6,1.6-1.7c0-1.1,0-2.2,0-3.4c0-0.3-0.1-0.6,0.4-0.6c0.4,0,0.3,0.3,0.3,0.6c0,1.1,0,2.2,0,3.4
		c-0.1,1.5-0.9,2.4-2.3,2.4c-1.4,0-2.2-0.9-2.2-2.5C-2921.5,2105.1-2921.5,2104.6-2921.5,2104.1z"/>
	<path class="st7" d="M-2938.7,2101.7c0.6,0,1.1,0.2,1.5,0.5c0.2,0.1,0.3,0.3,0.1,0.5c-0.1,0.2-0.3,0.3-0.5,0.1
		c-0.4-0.3-0.9-0.5-1.5-0.4c-0.4,0.1-0.8,0.3-0.9,0.7c-0.1,0.4,0.1,0.8,0.5,1c0.5,0.2,1,0.4,1.5,0.7c1,0.5,1.3,1.1,1.1,2
		c-0.2,0.7-0.9,1.3-1.8,1.3c-0.7,0-1.3-0.2-1.9-0.6c-0.2-0.1-0.4-0.3-0.2-0.6c0.2-0.3,0.3-0.2,0.6,0c0.4,0.3,0.9,0.6,1.5,0.5
		c0.5,0,1-0.3,1.1-0.8c0.1-0.5-0.2-0.9-0.6-1.1c-0.4-0.2-0.9-0.4-1.3-0.6c-1-0.5-1.3-1.1-1.1-2
		C-2940.4,2102.2-2939.6,2101.7-2938.7,2101.7z"/>
	<path class="st1" d="M-2960.6,2146.9c0,1,0,1.9,0,2.9c0,0.6-0.3,0.5-0.7,0.5c-0.4,0-0.7,0.1-0.7-0.5c0-1.9,0-3.9,0-5.8
		c0-0.7,0.4-0.5,0.8-0.5c0.3,0,0.7-0.1,0.7,0.5C-2960.7,2144.9-2960.6,2145.9-2960.6,2146.9z"/>
	<path class="st1" d="M-2837.1,2146.9c0,1,0,1.9,0,2.9c0,0.6-0.3,0.5-0.7,0.5c-0.4,0-0.7,0.1-0.7-0.5c0-1.9,0-3.9,0-5.8
		c0-0.6,0.3-0.5,0.7-0.5c0.3,0,0.8-0.2,0.8,0.5C-2837.1,2144.9-2837.1,2145.9-2837.1,2146.9z"/>
	<path class="st7" d="M-2994.2,2105c0,0.8,0,1.7,0,2.5c0,0.5-0.2,0.6-0.7,0.6c-0.4,0-0.7,0-0.7-0.6c0-1.7,0-3.5,0-5.2
		c0-0.6,0.4-0.5,0.8-0.5c0.4,0,0.6,0.1,0.6,0.6C-2994.2,2103.2-2994.2,2104.1-2994.2,2105z"/>
	<path class="st8" d="M-2924.8,2105.3c0,0.7,0,1.5,0,2.2c0,0.3,0,0.5-0.4,0.5c-0.4,0-0.3-0.3-0.3-0.6c0-1.4,0-2.8,0-4.2
		c0-0.6-0.1-0.9-0.8-0.8c-0.2,0-0.4,0-0.6,0c-0.2,0-0.3,0-0.3-0.3c0-0.2,0-0.4,0.3-0.4c1.2,0,2.4,0,3.6,0c0.2,0,0.2,0.2,0.2,0.4
		c0,0.2-0.1,0.2-0.3,0.3c-0.5,0.1-1.2-0.2-1.4,0.2c-0.2,0.5-0.1,1.2-0.1,1.8C-2924.8,2104.7-2924.8,2105-2924.8,2105.3z"/>
	<path class="st10" d="M-2913.8,2105.2c0-0.7,0-1.4,0-2.1c0-0.5-0.1-0.8-0.7-0.7c-0.2,0-0.5,0-0.7,0c-0.2,0-0.4-0.1-0.4-0.3
		c0-0.2,0.1-0.3,0.3-0.3c1.2,0,2.3,0,3.5,0c0.2,0,0.4,0.1,0.4,0.4c0,0.3-0.2,0.3-0.4,0.3c-1.3,0.1-1.3,0.1-1.3,1.5
		c0,1.2,0,2.3,0,3.5c0,0.2,0.2,0.6-0.3,0.6c-0.5,0-0.4-0.4-0.4-0.6C-2913.8,2106.7-2913.8,2106-2913.8,2105.2z"/>
	<path class="st10" d="M-2933.7,2105.2c0-0.7,0-1.4,0-2.1c0-0.5-0.1-0.7-0.7-0.7c-0.2,0-0.5,0-0.7,0c-0.2,0-0.4-0.1-0.4-0.3
		c0-0.2,0.1-0.3,0.3-0.3c1.2,0,2.3,0,3.5,0c0.2,0,0.4,0.1,0.4,0.4c0,0.3-0.2,0.3-0.4,0.3c-1.3,0.2-1.3,0.2-1.3,1.5
		c0,1.2,0,2.4,0,3.5c0,0.3,0.1,0.5-0.4,0.6c-0.4,0-0.4-0.3-0.4-0.5C-2933.7,2106.8-2933.7,2106-2933.7,2105.2z"/>
	<path class="st11" d="M-2928.8,2105c0,0.8,0,1.7,0,2.5c0,0.3,0,0.6-0.4,0.6c-0.4,0-0.4-0.3-0.4-0.6c0-1.7,0-3.4,0-5.2
		c0-0.3,0-0.5,0.4-0.5c0.4,0,0.4,0.2,0.4,0.5C-2928.8,2103.2-2928.8,2104.1-2928.8,2105z"/>
	<path class="st11" d="M-2949.1,2105c0,0.8,0,1.7,0,2.5c0,0.3,0,0.5-0.4,0.6c-0.4,0-0.4-0.3-0.4-0.6c0-1.7,0-3.4,0-5.1
		c0-0.3,0-0.6,0.4-0.6c0.4,0,0.4,0.3,0.4,0.6C-2949.1,2103.3-2949.1,2104.2-2949.1,2105z"/>
	<path class="st12" d="M-2975,2113.1c0,0.7,0,1.3,0,2c0,0.2,0,0.4-0.2,0.4c-0.2,0-0.3-0.2-0.3-0.4c0-0.9,0-1.8,0-2.7
		c0-0.2,0-0.4,0.2-0.4c0.2-0.1,0.3,0.1,0.4,0.2c0.5,0.7,0.9,1.4,1.6,2.3c0-0.9,0-1.5,0-2.1c0-0.2-0.1-0.5,0.2-0.5
		c0.2,0,0.2,0.2,0.2,0.4c0,0.9,0,1.8,0,2.7c0,0.1-0.1,0.3-0.2,0.4c-0.2,0.1-0.3-0.1-0.4-0.2c-0.5-0.7-1-1.5-1.5-2.2
		C-2974.9,2113.1-2975,2113.1-2975,2113.1z"/>
	<path class="st12" d="M-2926.9,2112.9c0,0.9,0,1.6,0,2.3c0,0.1,0,0.3-0.2,0.3c-0.2,0-0.3-0.2-0.3-0.3c0-0.9,0-1.8,0-2.8
		c0-0.2,0-0.4,0.3-0.4c0.2,0,0.3,0.1,0.4,0.3c0.5,0.7,0.9,1.4,1.5,2.3c0-0.9,0-1.5,0-2.1c0-0.2-0.1-0.4,0.2-0.4
		c0.3,0,0.3,0.2,0.3,0.4c0,0.9,0,1.7,0,2.6c0,0.2,0,0.4-0.2,0.4c-0.2,0.1-0.3-0.2-0.4-0.3
		C-2925.8,2114.5-2926.3,2113.8-2926.9,2112.9z"/>
	<path class="st12" d="M-2989.9,2114.6c0-0.9,0-1.5,0-2.2c0-0.2-0.1-0.4,0.2-0.4c0.2,0,0.3,0.2,0.3,0.4c0,0.9,0,1.8,0,2.8
		c0,0.1,0,0.3-0.2,0.3c-0.2,0-0.3-0.1-0.3-0.2c-0.5-0.7-1-1.5-1.6-2.4c0,0.9,0,1.5,0,2.2c0,0.2,0.1,0.5-0.2,0.5
		c-0.3,0-0.3-0.3-0.3-0.5c0-0.8,0-1.6,0-2.4c0-0.2,0-0.4,0.2-0.5c0.3-0.1,0.4,0.2,0.5,0.4
		C-2990.9,2113.1-2990.5,2113.7-2989.9,2114.6z"/>
	<path class="st13" d="M-2999.3,2113.3c0,0.6,0,1.2,0,1.9c0,0.2,0,0.4-0.2,0.4c-0.2,0-0.2-0.2-0.2-0.4c0-0.9,0-1.8,0-2.7
		c0-0.2,0-0.4,0.2-0.4c0.2-0.1,0.3,0.1,0.4,0.3c0.3,0.4,0.5,0.9,0.8,1.4c0.5-0.4,0.6-0.9,0.9-1.3c0.1-0.2,0.2-0.4,0.4-0.4
		c0.3,0,0.2,0.3,0.2,0.5c0,1,0,2-0.1,3c-0.4-0.8-0.2-1.6-0.3-2.5c-0.4,0.6-0.7,1-1,1.6c-0.3-0.5-0.6-0.9-0.8-1.3
		C-2999.1,2113.3-2999.2,2113.3-2999.3,2113.3z"/>
	<path class="st13" d="M-2950.5,2113.3c0,0.6,0,1.2,0,1.9c0,0.2,0,0.4-0.2,0.4c-0.3,0-0.2-0.2-0.2-0.4c0-0.9,0-1.8,0-2.7
		c0-0.2,0-0.4,0.2-0.4c0.2,0,0.3,0.1,0.4,0.3c0.4,0.7,0.9,1.3,1.5,2c0-0.5,0-1.1,0-1.6c0-0.2-0.1-0.6,0.2-0.6c0.4,0,0.2,0.3,0.2,0.5
		c0,0.8,0,1.6,0,2.3c0,0.2,0.1,0.5-0.2,0.6c-0.3,0.1-0.4-0.2-0.5-0.4c-0.4-0.6-0.8-1.2-1.2-1.9
		C-2950.4,2113.2-2950.4,2113.3-2950.5,2113.3z"/>
	<path class="st13" d="M-2954.5,2115.5c-0.3-0.8,0-1.6-0.2-2.5c-0.4,0.6-0.6,1-1,1.6c-0.3-0.5-0.6-1-0.9-1.4c-0.1,0-0.1,0-0.2,0
		c0,0.6,0,1.3,0,1.9c0,0.2,0,0.5-0.2,0.5c-0.3,0-0.2-0.3-0.2-0.5c0-0.8,0-1.7,0-2.5c0-0.2,0-0.4,0.2-0.5c0.2-0.1,0.3,0.1,0.5,0.3
		c0.3,0.4,0.4,1.2,0.8,1.2c0.4,0,0.5-0.8,0.8-1.2c0.1-0.2,0.2-0.4,0.5-0.3c0.2,0.1,0.2,0.3,0.2,0.4c0,1,0,2,0,3
		C-2954.3,2115.5-2954.4,2115.5-2954.5,2115.5z"/>
	<path class="st12" d="M-2980.6,2115.5c-0.6,0-0.7-0.4-0.9-0.7c-0.2-0.3-0.4-0.7-0.8-0.6c-0.5,0.1-0.2,0.5-0.3,0.8
		c-0.1,0.2,0.1,0.5-0.3,0.5c-0.3,0-0.2-0.3-0.2-0.5c0-0.8,0-1.6,0-2.4c0-0.5,0.2-0.6,0.6-0.6c0.3,0,0.7,0,1,0.1
		c0.7,0.2,1.2,1,0.7,1.4c-0.9,0.8-0.2,1.2,0.1,1.8C-2980.7,2115.3-2980.7,2115.4-2980.6,2115.5z"/>
	<path class="st12" d="M-2958.3,2115.6c-0.7,0-0.7-0.5-1-0.9c-0.2-0.3-0.4-0.6-0.8-0.5s-0.2,0.5-0.3,0.7c0,0.2,0.1,0.6-0.2,0.6
		c-0.3,0-0.2-0.3-0.2-0.6c0-0.7,0-1.5,0-2.2c0-0.6,0.2-0.7,0.8-0.7c1.2,0,1.7,0.3,1.7,1.2c0,0.1,0,0.3-0.1,0.4
		c-0.9,0.6-0.3,1.1,0,1.6C-2958.4,2115.3-2958.4,2115.4-2958.3,2115.6z"/>
	<path class="st14" d="M-2928.7,2113.8c0,0.5,0,0.9,0,1.4c0,0.1-0.1,0.3-0.2,0.3c-0.3,0-0.2-0.2-0.2-0.4c0-0.1,0-0.3,0-0.4
		c0.1-0.6-0.2-0.8-0.8-0.8c-0.6,0-0.9,0.1-0.8,0.7c0,0.1,0,0.3,0,0.4c0,0.2,0,0.4-0.2,0.4c-0.2,0-0.3-0.2-0.3-0.4c0-0.9,0-1.8,0-2.8
		c0-0.2,0-0.4,0.3-0.3c0.2,0,0.2,0.2,0.2,0.4c0.1,0.4-0.3,1,0.5,1.1c0.7,0,1.2-0.1,1-0.9c0-0.2-0.1-0.5,0.2-0.5
		c0.3,0,0.2,0.3,0.2,0.6C-2928.7,2113-2928.7,2113.4-2928.7,2113.8C-2928.7,2113.8-2928.7,2113.8-2928.7,2113.8z"/>
	<path class="st15" d="M-2995.4,2113.8c0-0.1,0-0.3,0-0.4c0-1.4,0.5-1.8,1.9-1.4c0.1,0,0.3,0.1,0.3,0.3c0,0.2-0.2,0.2-0.3,0.2
		c-0.3,0-0.5,0-0.8,0c-0.4,0-0.6,0.1-0.6,0.5c0,0.4,0.1,0.6,0.6,0.5c0,0,0.1,0,0.1,0c0.3,0.1,0.8-0.2,0.8,0.2c0,0.5-0.5,0.3-0.8,0.3
		c-0.4,0-0.6,0.1-0.6,0.6c0,0.6,0.3,0.6,0.7,0.6c0.3,0,1-0.2,1,0.2c0,0.5-0.6,0.2-1,0.2C-2995.4,2115.6-2995.4,2115.6-2995.4,2113.8
		z"/>
	<path class="st15" d="M-2938.1,2113.8c0-0.1,0-0.2,0-0.3c0-1.5,0.4-1.8,1.8-1.4c0.1,0,0.3,0,0.3,0.2c0,0.3-0.2,0.2-0.4,0.2
		c-0.2,0-0.4,0-0.6,0c-0.4,0-0.7,0-0.7,0.6c0,0.5,0.3,0.5,0.7,0.5c0,0,0.1,0,0.1,0c0.3,0.1,0.7-0.2,0.7,0.2c0,0.4-0.4,0.2-0.7,0.3
		c-0.4,0-0.8-0.1-0.8,0.6c0,0.7,0.4,0.5,0.8,0.5c0.1,0,0.1,0,0.2,0c0.3,0.1,0.7-0.2,0.7,0.2c0,0.4-0.5,0.2-0.7,0.2
		C-2938.1,2115.6-2938.1,2115.6-2938.1,2113.8z"/>
	<path class="st16" d="M-2962,2113.7c0,1.1-0.6,1.8-1.5,1.8c-0.9,0-1.5-0.7-1.5-1.7c0-1.1,0.7-1.9,1.6-1.9
		C-2962.7,2112-2962,2112.7-2962,2113.7z"/>
	<path class="st17" d="M-2945.8,2113.8c0.5-0.1,1-0.4,1.3,0.2c0.3,0.7,0,1.5-0.8,1.6c-0.7,0.1-1.3-0.1-1.7-0.7
		c-0.4-0.7-0.4-1.7,0.1-2.4c0.4-0.5,1-0.7,1.7-0.5c0.2,0.1,0.5,0.1,0.4,0.4c-0.1,0.3-0.3,0-0.5,0c-0.6-0.1-1.1,0-1.4,0.6
		c-0.3,0.7-0.1,1.5,0.4,1.9c0.3,0.2,0.6,0.3,1,0.1c0.3-0.1,0.3-0.4,0.3-0.7C-2944.8,2113.8-2945.5,2114.2-2945.8,2113.8z"/>
	<path class="st3" d="M-3001,2113.8c0,1.1-0.6,1.8-1.5,1.8c-0.9,0-1.5-0.8-1.5-1.8c0-1,0.7-1.8,1.5-1.8
		C-3001.6,2111.9-3001,2112.7-3001,2113.8z"/>
	<path class="st16" d="M-2910.8,2113.7c0.5,0,1.1-0.4,1.3,0.3c0.3,0.8-0.1,1.4-0.9,1.6c-0.7,0.1-1.2-0.1-1.6-0.7
		c-0.4-0.6-0.3-1.7,0.1-2.3c0.4-0.5,1-0.7,1.6-0.5c0.2,0.1,0.6,0.1,0.5,0.4c-0.1,0.4-0.4,0-0.6,0c-0.6-0.1-1.1,0-1.4,0.7
		c-0.3,0.7-0.1,1.5,0.4,1.9c0.3,0.2,0.7,0.2,1.1,0.1c0.3-0.2,0.2-0.4,0.2-0.7C-2909.9,2113.8-2910.6,2114.2-2910.8,2113.7z"/>
	<path class="st18" d="M-2913.4,2113.7c0,1.1-0.6,1.8-1.5,1.8c-0.9,0-1.5-0.7-1.5-1.8c0-1.1,0.6-1.9,1.5-1.8
		C-2914,2112-2913.4,2112.7-2913.4,2113.7z"/>
	<path class="st18" d="M-2923.5,2113.8c0-1,0.6-1.8,1.5-1.8c0.9,0,1.5,0.8,1.5,1.8c0,1-0.6,1.8-1.5,1.8
		C-2922.9,2115.6-2923.5,2114.9-2923.5,2113.8z"/>
	<path class="st17" d="M-2979.6,2115.6c0.3-0.8,0.6-1.6,0.9-2.3c0.2-0.4,0.2-1.2,0.7-1.2c0.5,0,0.5,0.8,0.7,1.2
		c0.3,0.6,0.5,1.3,0.7,1.9c0.1,0.1,0.1,0.3-0.1,0.4c-0.1,0-0.3-0.1-0.3-0.1c-0.2-0.6-0.5-0.7-1.1-0.8c-0.7-0.1-0.8,0.5-1.1,0.9
		C-2979.3,2115.5-2979.3,2115.5-2979.6,2115.6z"/>
	<path class="st19" d="M-2966.2,2113.8c-0.1,0.1-0.2,0.2-0.2,0.2c-0.9-0.1-1.6,0.1-1.3,1.3c0,0.1,0,0.2-0.2,0.3
		c-0.2,0-0.3-0.1-0.3-0.2c0-1-0.1-2,0-2.9c0-0.5,0.5-0.4,0.8-0.3c0.4,0,1.2-0.2,1.2,0.2c0,0.4-0.7,0.2-1.1,0.2
		c-0.4,0-0.5,0.2-0.5,0.6c0,0.4,0.1,0.7,0.6,0.6C-2966.9,2113.6-2966.5,2113.5-2966.2,2113.8z"/>
	<path class="st13" d="M-2970.4,2112c0.1,0,0.3,0.1,0.5,0.2c0.1,0.1,0.4,0.1,0.3,0.3c-0.1,0.3-0.3,0.1-0.5,0.1
		c-0.4-0.2-0.8-0.2-1,0.2c-0.2,0.5,0.3,0.6,0.6,0.8c0.4,0.2,0.8,0.3,1,0.7c0.2,0.5,0.1,1-0.4,1.2c-0.5,0.3-1.5,0.1-1.7-0.3
		c0-0.1,0-0.2,0-0.2c0.1-0.1,0.2-0.1,0.3-0.1c0.5,0.3,1.1,0.6,1.4-0.1c0.3-0.8-0.6-0.7-1-1c-0.5-0.3-0.8-0.6-0.6-1.2
		C-2971.4,2112.1-2970.9,2112-2970.4,2112z"/>
	<path class="st17" d="M-2932.4,2114.9c-0.1,0.5-0.5,0.6-0.8,0.7c-0.7,0.1-1.2-0.2-1.6-0.8c-0.4-0.8-0.2-1.8,0.3-2.3
		c0.5-0.5,1.1-0.6,1.7-0.3c0.2,0.1,0.5,0.1,0.3,0.4c-0.1,0.2-0.3,0.1-0.4,0c-0.5-0.2-1-0.2-1.4,0.4c-0.4,0.6-0.4,1.3,0.1,1.9
		c0.4,0.5,0.9,0.5,1.5,0.2C-2932.7,2114.9-2932.6,2114.9-2932.4,2114.9z"/>
	<path class="st20" d="M-2919.3,2113.9c0-0.6,0-1.1,0-1.5c0-0.2,0-0.4,0.2-0.4c0.2,0,0.2,0.2,0.2,0.4c0,0.6,0,1.2,0,1.8
		c-0.1,0.7,0.2,0.9,0.9,0.9c0.2,0,0.7-0.2,0.7,0.3c0,0.3-0.4,0.2-0.6,0.2C-2919.5,2115.6-2919.2,2115.8-2919.3,2113.9z"/>
	<path class="st13" d="M-2907.2,2115.6c0.1-1.4-0.8-2.3-1.4-3.6c1,0.2,0.9,1.1,1.4,1.5c0.6-0.4,0.5-1.2,1.4-1.5
		C-2906.3,2113.2-2907.3,2114.2-2907.2,2115.6z"/>
	<path class="st21" d="M-2940.5,2115.5c-0.2-0.7-0.1-1.5-0.1-2.3c0-0.4,0.1-0.9-0.6-0.8c-0.1,0-0.3,0-0.3-0.2c0-0.2,0.2-0.2,0.3-0.2
		c0.5,0,1.1,0,1.6,0c0.1,0,0.3,0.1,0.3,0.2c0,0.2-0.1,0.2-0.3,0.2c-0.7-0.1-0.7,0.3-0.7,0.8c0,0.8,0,1.5,0,2.3
		C-2940.3,2115.5-2940.4,2115.5-2940.5,2115.5z"/>
	<path class="st21" d="M-2985.6,2115.5c0-0.8,0-1.6,0-2.4c0-0.4,0-0.8-0.6-0.7c-0.2,0-0.4,0-0.4-0.2c0-0.2,0.2-0.2,0.3-0.2
		c0.5,0,1.1,0,1.6,0c0.1,0,0.3,0.1,0.3,0.2c0,0.2-0.2,0.2-0.3,0.2c-0.6-0.1-0.6,0.3-0.6,0.7c0,0.8,0.1,1.6-0.1,2.3
		C-2985.4,2115.5-2985.5,2115.5-2985.6,2115.5z"/>
	<path class="st22" d="M-2952.3,2113.9c0,0.5,0,0.9,0,1.4c0,0.1,0,0.3-0.2,0.3c-0.1,0-0.2-0.2-0.2-0.2c0-1,0-2,0-3
		c0-0.1,0.1-0.2,0.2-0.2c0.1,0,0.2,0.1,0.2,0.2C-2952.3,2112.8-2952.3,2113.3-2952.3,2113.9z"/>
	<path class="st23" d="M-3006.4,2103.7c0.2,0.7,0.4,1.2,0.6,1.8c-0.4,0-0.8,0-1.2,0C-3007,2104.9-3006.8,2104.4-3006.4,2103.7z"/>
	<path class="st24" d="M-2832.8,2125.9c0-0.7,0-1.4,0-2.2c0-0.4,0-0.6,0.5-0.6c0.9,0,1.9,0,2.8,0c1.6,0.1,2.6,1.1,2.6,2.7
		c0,1.6-0.9,2.7-2.5,2.8c-0.9,0.1-1.9,0-2.8,0.1c-0.4,0-0.6-0.1-0.5-0.5C-2832.7,2127.5-2832.8,2126.7-2832.8,2125.9z"/>
	<path class="st24" d="M-2986.6,2125.9c0-0.7,0-1.4,0-2.2c0-0.4,0.1-0.6,0.6-0.6c0.9,0,1.8,0,2.8,0c1.6,0.1,2.6,1.1,2.6,2.8
		c0,1.6-1,2.7-2.6,2.8c-0.9,0.1-1.8,0-2.8,0.1c-0.4,0-0.6-0.1-0.6-0.6C-2986.6,2127.5-2986.6,2126.7-2986.6,2125.9z"/>
	<path class="st24" d="M-2898.4,2129c0-1.5,0.2-2.9,1-4.1c1.7-2.6,5.1-2.6,6.8-0.1c1.5,2.2,1.5,6.4,0,8.6c-1.6,2.3-4.8,2.4-6.5,0.2
		C-2898.1,2132.2-2898.4,2130.6-2898.4,2129z"/>
	<path class="st24" d="M-2966.3,2124.9c0.7,2,1.2,3.7,1.8,5.4c0.2,0.5,0.1,0.7-0.4,0.7c-0.9,0-1.9,0-2.8,0c-0.4,0-0.5-0.1-0.4-0.5
		C-2967.6,2128.6-2967,2126.9-2966.3,2124.9z"/>
	<path class="st24" d="M-2878.6,2126.2c0-0.8,0-1.6,0-2.4c0-0.5,0.1-0.7,0.6-0.6c0.7,0,1.4,0,2.2,0c1.6,0.1,2.5,1.2,2.6,2.8
		c0.1,1.5-0.8,2.7-2.2,3.1c-0.9,0.2-1.8,0.1-2.7,0.1c-0.4,0-0.5-0.2-0.5-0.5C-2878.6,2127.9-2878.6,2127-2878.6,2126.2z"/>
	<path class="st24" d="M-2863.3,2126.2c0-0.8,0-1.6,0-2.4c0-0.4,0.1-0.6,0.6-0.6c0.7,0,1.5,0,2.2,0c1.5,0.1,2.4,1.1,2.5,2.7
		c0.1,1.7-0.7,2.8-2.2,3.2c-0.9,0.2-1.8,0.1-2.7,0.1c-0.4,0-0.5-0.2-0.5-0.5C-2863.3,2127.9-2863.3,2127-2863.3,2126.2z"/>
	<path class="st23" d="M-2984,2149c-0.9,0-1.2-0.4-0.9-1.3c0.1-0.2,0.2-0.3,0.4-0.3c0.3,0,0.7,0,1,0c0.4,0.1,0.9,0.2,0.9,0.8
		c0,0.5-0.4,0.7-0.9,0.7C-2983.7,2149-2983.8,2149-2984,2149z"/>
	<path class="st0" d="M-2984.2,2144.8c0.7,0,1.2,0,1.2,0.7c0,0.9-0.7,0.7-1.3,0.8c-0.7,0.1-0.6-0.3-0.7-0.7
		C-2985,2144.8-2984.6,2144.7-2984.2,2144.8z"/>
	<path class="st23" d="M-2978.6,2145.9c0-0.6-0.2-1.2,0.8-1.1c0.7,0.1,1.3,0.1,1.3,1c0,0.7-0.4,0.9-1.3,1
		C-2978.6,2146.9-2978.6,2146.4-2978.6,2145.9z"/>
	<path class="st0" d="M-2869.6,2146.9c0-0.1,0-0.3,0-0.4c0.1-1,0.7-1.7,1.5-1.7c0.8,0,1.5,0.7,1.6,1.7c0.1,0.5,0.1,1-0.1,1.5
		c-0.2,0.7-0.6,1.2-1.4,1.2c-0.9,0-1.3-0.6-1.5-1.3C-2869.6,2147.5-2869.6,2147.2-2869.6,2146.9
		C-2869.7,2146.9-2869.6,2146.9-2869.6,2146.9z"/>
	<path class="st0" d="M-2914.1,2146.6c0,0.7-0.1,1.1-0.3,1.5c-0.2,0.5-0.6,0.9-1.3,0.9c-0.6,0-1.1-0.3-1.4-0.9
		c-0.4-0.8-0.4-1.6-0.1-2.4c0.2-0.7,0.7-1.1,1.4-1.1c0.7,0,1.2,0.5,1.5,1.1C-2914.2,2146.2-2914.1,2146.5-2914.1,2146.6z"/>
	<path class="st0" d="M-2954.7,2146.9c-0.1,0.5-0.1,0.9-0.3,1.3c-0.3,0.5-0.7,0.9-1.3,0.9c-0.6,0-1.1-0.3-1.4-0.9
		c-0.3-0.7-0.4-1.4-0.2-2.2c0.2-0.7,0.7-1.3,1.4-1.3c0.8,0,1.3,0.6,1.5,1.3C-2954.7,2146.3-2954.7,2146.7-2954.7,2146.9z"/>
	<path class="st0" d="M-2938.4,2146.9c0,0.5-0.1,1-0.3,1.4c-0.6,0.9-1.8,1-2.4,0.1c-0.6-0.9-0.6-1.9-0.1-2.9
		c0.3-0.5,0.7-0.8,1.3-0.8c0.6,0,1,0.3,1.3,0.9C-2938.5,2146-2938.4,2146.4-2938.4,2146.9z"/>
	<path class="st25" d="M-2976.5,2106.9c-0.6,0.1-0.7-0.2-0.7-0.7c0-0.7,0.3-0.8,0.8-0.7c0.5,0.1,1.2-0.1,1.2,0.7
		C-2975.2,2107-2976,2106.8-2976.5,2106.9z"/>
	<path class="st26" d="M-2976.6,2104.3c-0.4,0.1-0.7,0-0.7-0.6c0-0.5,0.1-0.8,0.7-0.8c0.5,0.1,1.1,0,1.1,0.7
		C-2975.4,2104.3-2976,2104.3-2976.6,2104.3z"/>
	<path class="st0" d="M-2964,2104c0-0.5-0.2-1,0.7-1c0.6,0,1.2,0.1,1.2,0.9c0,0.8-0.6,0.9-1.3,1
		C-2964.2,2104.9-2963.9,2104.4-2964,2104z"/>
	<path class="st0" d="M-2854.8,2145.8c0.1-0.3-0.3-1.1,0.6-1c0.7,0.1,1.2,0.3,1.2,1c0,0.7-0.4,1.1-1.3,1.1
		C-2854.8,2146.9-2854.8,2146.9-2854.8,2145.8z"/>
	<path class="st27" d="M-2971,2145.4c0.3,0.8,0.5,1.4,0.7,2.1c-0.5,0-1.2,0.2-1.2,0C-2971.7,2146.9-2971.2,2146.3-2971,2145.4z"/>
	<path class="st0" d="M-2971.2,2104.9c0-0.4,0.1-0.7,0.2-1c0.2-0.5,0.6-0.9,1.2-0.9c0.7,0,1.1,0.4,1.3,1c0.2,0.6,0.3,1.2,0.1,1.8
		c-0.2,0.7-0.6,1.2-1.4,1.2c-0.7,0-1.1-0.5-1.3-1.2C-2971.2,2105.5-2971.2,2105.2-2971.2,2104.9z"/>
	<path class="st26" d="M-2985.2,2103.7c0.2,0.7,0.4,1.2,0.6,1.8C-2986,2105.6-2986,2105.6-2985.2,2103.7z"/>
	<path class="st23" d="M-2982.1,2112.5c0.6,0,1,0.1,1,0.6c0,0.6-0.5,0.7-1,0.7c-0.5,0.1-0.5-0.3-0.5-0.6
		C-2982.6,2112.8-2982.7,2112.3-2982.1,2112.5z"/>
	<path class="st28" d="M-2959.8,2112.5c0.5,0,0.9,0.1,0.9,0.6c0,0.6-0.5,0.7-1,0.8c-0.6,0-0.5-0.3-0.5-0.7
		C-2960.4,2112.7-2960.3,2112.3-2959.8,2112.5z"/>
	<path class="st0" d="M-2962.5,2113.8c0,0.8-0.5,1.4-1.1,1.4c-0.6,0-1.1-0.6-1.1-1.4c0-0.8,0.5-1.4,1.1-1.4
		C-2963,2112.3-2962.5,2113-2962.5,2113.8z"/>
	<path class="st25" d="M-3001.4,2113.8c0,0.8-0.4,1.4-1,1.4c-0.6,0-1.1-0.7-1.1-1.5c0-0.7,0.5-1.4,1-1.4
		C-3001.9,2112.3-3001.4,2112.9-3001.4,2113.8z"/>
	<path class="st25" d="M-2916,2113.8c0-0.7,0.5-1.4,1.1-1.5c0.6,0,1.1,0.6,1.1,1.4c0,0.8-0.5,1.4-1.1,1.5
		C-2915.4,2115.2-2915.9,2114.6-2916,2113.8z"/>
	<path class="st25" d="M-2920.9,2113.7c0,0.7-0.5,1.4-1.1,1.5c-0.6,0-1.1-0.6-1.1-1.4c0-0.8,0.5-1.4,1.1-1.5
		C-2921.4,2112.3-2920.9,2113-2920.9,2113.7z"/>
	<path class="st29" d="M-2978.6,2114.2c0.1-0.4,0.2-0.7,0.4-1c0-0.1,0.1-0.3,0.2-0.5c0.2,0.6,0.6,1,0.4,1.5
		C-2977.7,2114.4-2978.3,2114.2-2978.6,2114.2z"/>
</g>
</svg>
