<?xml version="1.0" encoding="utf-8"?>
<!-- Generator: Adobe Illustrator 19.1.0, SVG Export Plug-In . SVG Version: 6.00 Build 0)  -->
<svg version="1.1" id="Layer_1" xmlns="http://www.w3.org/2000/svg" xmlns:xlink="http://www.w3.org/1999/xlink" x="0px" y="0px"
	 viewBox="-3018 2088 200 76" style="enable-background:new -3018 2088 200 76;" xml:space="preserve">
<style type="text/css">
	.st0{fill:#FFFFFF;}
</style>
<g>
	<g>
		<path d="M-2882,2162c-23.9,0-47.9,0-71.8,0c0-23.9,0-47.9,0-71.8c23.9,0,47.9,0,71.8,0C-2882,2114.1-2882,2138.1-2882,2162z
			 M-2918.6,2126c-0.1-0.2-0.2-0.4-0.2-0.5c-0.5-1-0.5-2,0-3c0.4-0.8,1.1-1.5,1.6-2.2c0.1-0.2,0.3-0.4,0.3-0.6c0-0.7-0.5-2-0.9-2.5
			c-0.7,1-1.5,2-2.2,3c-0.7,0.9-1.1,2-1.1,3.2C-2921.1,2124.6-2919.8,2125.9-2918.6,2126z M-2917.6,2126.2c3.1,0.3,5.2-3.3,4.9-5.7
			c-0.7,0.5-1.5,1.2-2.3,1.7c-0.4,0.3-0.9,0.6-1.3,0.9C-2917.3,2123.9-2917.7,2124.9-2917.6,2126.2z M-2923.4,2102.2
			c-0.3-0.8-0.5-1.4-0.7-2c-0.1-0.3-0.1-0.7-0.6-0.6c-0.5,0-0.5,0.3-0.6,0.6c-0.2,0.6-0.4,1.2-0.7,2c-0.2-0.7-0.4-1.3-0.6-1.9
			c-0.2-0.7-0.3-0.8-1.1-0.5c0.4,1.1,0.8,2.3,1.2,3.4c0.1,0.3,0.2,0.5,0.5,0.4c0.2-0.1,0.4-0.2,0.5-0.4c0.3-0.6,0.5-1.3,0.7-2.1
			c0.3,0.8,0.5,1.5,0.8,2.2c0.1,0.1,0.3,0.3,0.5,0.3c0.2,0,0.4-0.1,0.5-0.2c0.4-1.2,0.8-2.4,1.3-3.7c-0.9-0.1-0.9-0.1-1.1,0.6
			C-2923,2100.9-2923.1,2101.4-2923.4,2102.2z M-2915.1,2118.4c-0.9,1.1-1.7,2.1-2.5,3c-0.3,0.4-0.6,0.9-0.9,1.4
			c-0.5,1-0.3,2,0.3,2.9c0.4-1.8,0.7-2.2,2.1-3.3c0.4-0.3,0.8-0.5,1.2-0.8c0.1-0.1,0.3-0.4,0.3-0.5
			C-2914.7,2120.2-2914.9,2119.4-2915.1,2118.4z M-2902,2144.8c0,1.3,0,2.6,0,3.9c0.8,0,1.6,0.1,2.3,0c0.8-0.1,1.3-0.8,0.9-1.5
			c-0.1-0.2-0.3-0.4-0.5-0.6c0.7-0.9,0.4-1.7-0.7-1.8C-2900.6,2144.8-2901.3,2144.8-2902,2144.8z M-2935,2103.5c0-1.3,0-2.6,0-3.8
			c-0.3,0-0.6,0-0.9,0c0,0.7,0,1.4,0,2.3c-0.5-0.7-1-1.2-1.4-1.8c-0.3-0.4-0.6-0.6-1.2-0.4c0,1.3,0,2.5,0,3.9c0.3,0,0.5,0,0.9,0
			c0-0.8,0-1.5,0-2.2c0.6,0.6,1.1,1.2,1.5,1.8C-2935.8,2103.5-2935.5,2103.7-2935,2103.5z M-2936.3,2107.7c0,1.2,0,2.4,0,3.6
			c0,0.1,0.3,0.3,0.5,0.3c0.1,0,0.3-0.2,0.4-0.4c0-0.6,0-1.2,0-1.8c0.6,0.6,1.1,1.2,1.6,1.9c0.2,0.3,0.5,0.5,0.9,0.3
			c0.1-0.1,0.2-0.4,0.2-0.7c0-0.3,0-0.7,0-1c0-0.7,0-1.5,0-2.2c-0.4,0-0.6,0-0.9,0c0,0.7,0,1.4,0,2.1c-0.6-0.5-1-1.1-1.4-1.6
			C-2935.4,2107.7-2935.7,2107.5-2936.3,2107.7z M-2934.1,2148.7c0.7,0,1.3,0,1.9,0c0.6,0,1.1-0.1,1.3-0.7c0.2-0.6,0-1-0.5-1.4
			c0.7-1,0.4-1.8-0.8-1.9c-0.6-0.1-1.3,0-2,0C-2934.1,2146.1-2934.1,2147.4-2934.1,2148.7z M-2906.4,2099.7c0,1.3,0,2.6,0,3.9
			c0.3,0,0.6,0,0.8,0c0-0.4,0.1-0.8,0.1-1.2c0.7-0.3,0.8,0.3,1,0.6c0.3,0.6,0.7,0.7,1.4,0.5c-0.3-0.5-0.6-0.9-0.9-1.3
			c0.6-0.4,0.9-0.9,0.8-1.6c-0.1-0.6-0.5-0.9-1.1-1C-2905,2099.6-2905.7,2099.7-2906.4,2099.7z M-2919.9,2148.7c0.7,0,1.4,0.1,2,0
			c1-0.1,1.6-0.9,1.7-1.9c0-0.9-0.6-1.8-1.6-1.9c-0.6-0.1-1.1-0.1-1.7-0.1c-0.1,0-0.3,0.2-0.3,0.3
			C-2919.9,2146.3-2919.9,2147.5-2919.9,2148.7z M-2914.9,2110.4c0.7-0.2,0.9,0.3,1.1,0.7c0.3,0.6,0.8,0.6,1.4,0.4
			c-0.3-0.5-0.6-0.9-0.9-1.3c0.1-0.1,0.2-0.2,0.3-0.3c0.4-0.3,0.5-0.8,0.4-1.2c-0.1-0.5-0.4-0.9-0.9-1c-0.8-0.1-1.6-0.1-2.4-0.1
			c0,1.2,0,2.2,0,3.3c0,0.7,0.1,0.8,0.9,0.5C-2914.9,2111.1-2914.9,2110.7-2914.9,2110.4z M-2921.5,2119.2c-0.5,1.2-1,2.2-1.3,3.2
			c-0.7,2.1,1.1,4.1,3.2,3.7c-0.4-0.3-0.8-0.6-1.1-1c-1-1.2-0.9-2.5-0.3-3.8C-2920.7,2120.5-2921.1,2120-2921.5,2119.2z
			 M-2910.6,2103.6c1.2,0,2.1-0.9,2.1-2c0-1.2-0.9-2-2.1-2c-1.2,0-2.1,0.9-2.1,2C-2912.7,2102.7-2911.8,2103.6-2910.6,2103.6z
			 M-2929.4,2103.5c0-0.3,0-0.5,0-0.8c-0.7,0-1.4,0-2.1,0c0-0.3,0-0.5,0-0.7c0.1,0,0.1-0.1,0.2-0.1c0.3,0,0.7,0,1,0
			c0.7,0,0.7,0,0.6-0.8c-0.6,0-1.2,0-1.7,0c0-0.3,0-0.5,0-0.7c0.5,0,1,0,1.4,0c0.7,0,0.7,0,0.6-0.8c-1,0-1.9,0-2.9,0
			c0,1.3,0,2.6,0,3.9C-2931.4,2103.5-2930.4,2103.5-2929.4,2103.5z M-2910.5,2148.7c0-1.3,0-2.6,0-3.9c-0.3,0-0.5,0-0.9,0
			c0,0.5,0,1,0,1.5c-0.5,0-1,0-1.5,0c0-0.5,0-1-0.1-1.4c-0.3,0-0.6,0-0.8,0c0,1.3,0,2.6,0,3.9c0.3,0,0.6,0,0.8,0c0-0.5,0-1,0.1-1.5
			c0.5,0,1,0,1.6,0c0,0.5,0,1,0,1.5C-2911,2148.7-2910.7,2148.7-2910.5,2148.7z M-2918.2,2110.7c-0.7,0-1.4,0-2,0
			c-0.2-0.6,0-0.8,0.5-0.8c0.4,0,0.8,0,1.2,0c0-0.3,0-0.5,0-0.8c-0.6,0-1.2,0-1.8,0c-0.2-0.5-0.1-0.8,0.5-0.8c0.5,0,1,0,1.5,0
			c0-0.3,0-0.5,0-0.8c-1,0-1.9,0-2.9,0c0,1.3,0,2.6,0,3.9c1,0,2,0,3,0C-2918.2,2111.3-2918.2,2111.1-2918.2,2110.7z M-2928.4,2144.8
			c0,0.7,0,1.4,0,2c0,0.2,0,0.5,0,0.7c0.1,0.8,0.8,1.3,1.7,1.3c0.9,0,1.6-0.5,1.7-1.3c0.1-0.7,0-1.5,0.1-2.2c0-0.4-0.1-0.5-0.5-0.5
			c-0.4,0-0.4,0.2-0.4,0.5c0,0.6,0,1.3,0,1.9c0,0.4-0.3,0.7-0.7,0.7c-0.4,0-0.8-0.1-0.9-0.6c-0.1-0.3-0.1-0.6-0.1-0.9
			c0-0.5,0-1.1,0-1.6C-2927.9,2144.8-2928.1,2144.8-2928.4,2144.8z M-2899.9,2101.3c0-0.6,0-1.1,0-1.6c-0.3,0-0.6,0-0.8,0
			c0,1.3,0,2.6,0,3.9c0.3,0,0.5,0,0.8,0c0.2-0.5-0.2-1.2,0.5-1.6c0.3,0.3,0.5,0.7,0.7,1c0.3,0.6,0.8,0.7,1.5,0.5
			c-0.6-0.8-1.1-1.5-1.6-2.2c0.5-0.5,1-1,1.5-1.6c-0.6-0.1-1.1-0.1-1.5,0.4C-2899.1,2100.5-2899.5,2100.8-2899.9,2101.3z
			 M-2942.2,2107.7c0,0.9,0,1.8,0,2.7c0.1,0.8,0.7,1.2,1.5,1.3c1,0.1,1.7-0.3,1.8-1.1c0.1-0.9,0.1-1.9,0.1-2.9c-0.4,0-0.6,0-1,0
			c0,0.8,0,1.5,0,2.3c0,0.7-0.6,1.1-1.1,0.7c-0.3-0.2-0.4-0.6-0.5-0.9c-0.1-0.7,0-1.4,0-2.1
			C-2941.6,2107.7-2941.9,2107.7-2942.2,2107.7z M-2904.2,2148.7c-0.5-1.3-1.1-2.5-1.6-3.7c-0.2-0.3-0.8-0.2-1,0.1
			c-0.3,0.7-0.6,1.5-1,2.2c-0.2,0.4-0.4,0.9-0.6,1.3c0.6,0.1,1,0.1,1.1-0.5c0-0.1,0.2-0.3,0.4-0.3c0.4,0,0.7,0,1.1,0
			c0.1,0,0.4,0.1,0.4,0.3C-2905.2,2148.8-2904.8,2148.8-2904.2,2148.7z M-2940.4,2148.7c0.6,0.1,1,0.1,1.1-0.5
			c0-0.1,0.3-0.3,0.4-0.3c0.3,0,0.6,0,1,0c0.2,0,0.4,0.2,0.5,0.3c0.2,0.7,0.6,0.6,1.2,0.5c-0.5-1.3-1-2.5-1.6-3.7
			c-0.2-0.4-0.8-0.4-1,0C-2939.3,2146.2-2939.8,2147.4-2940.4,2148.7z M-2918.3,2135.3c0.1,0,0.2,0,0.3,0c0.2-2.3,0.4-4.7,0.6-7
			c-0.6,0-1.2,0-1.8,0C-2918.9,2130.6-2918.6,2133-2918.3,2135.3z M-2910.5,2111c0.7,0.6,1.5,0.8,2.3,0.5c0.5-0.2,0.8-0.5,0.8-1
			c0-0.5-0.2-0.9-0.7-1.1c-0.3-0.1-0.7-0.2-1-0.3c-0.1-0.1-0.2-0.3-0.3-0.4c0.1-0.1,0.3-0.3,0.4-0.3c0.4,0,0.7,0.2,1.1,0.3
			c0.1-0.2,0.2-0.4,0.4-0.6c-0.6-0.4-1.2-0.6-1.9-0.4c-0.5,0.1-0.9,0.5-0.9,1c-0.1,0.6,0.2,1,0.8,1.1c0.3,0.1,0.6,0.2,0.9,0.3
			c0.2,0.1,0.3,0.3,0.4,0.4c-0.2,0.1-0.4,0.3-0.5,0.3c-0.4-0.1-0.8-0.2-1.2-0.4C-2910.2,2110.6-2910.3,2110.8-2910.5,2111z
			 M-2925.3,2110.3c-0.3-0.8-0.6-1.5-0.8-2.2c-0.2-0.6-0.5-0.7-1.1-0.4c0.5,1.2,0.9,2.4,1.4,3.5c0.1,0.1,0.3,0.3,0.4,0.3
			c0.2,0,0.5-0.1,0.5-0.2c0.5-1.2,1-2.4,1.5-3.6c-0.9-0.1-0.9-0.1-1.2,0.6C-2924.8,2109-2925,2109.6-2925.3,2110.3z M-2898.6,2107.7
			c-1.2,0-2.3,0-3.3,0c-0.3,1.2,0.7,0.6,1.1,0.9c0,0.8,0,1.6,0,2.4c0,0.3,0,0.6,0.5,0.6c0.4,0,0.5-0.2,0.5-0.6c0-0.8,0-1.7,0-2.6
			c0.4,0,0.7,0.1,0.9,0C-2898.8,2108.3-2898.8,2108-2898.6,2107.7z M-2897.3,2107.7c0.3,0.5,0.6,0.9,0.9,1.4
			c0.4,0.6,0.7,1.2,0.6,1.9c0,0.3,0,0.6,0.4,0.6c0.5,0,0.5-0.3,0.5-0.6c-0.1-0.7,0.1-1.3,0.6-1.9c0.3-0.4,0.6-0.9,0.9-1.4
			c-1.3-0.4-1.3,0.9-1.9,1.4c-0.2-0.3-0.4-0.6-0.5-0.9C-2896.2,2107.6-2896.6,2107.5-2897.3,2107.7z M-2918.2,2099.7
			c0.7,1.3,1.9,2.3,1.4,3.8c0.4,0,0.6,0,1,0c-0.5-1.6,0.8-2.6,1.4-3.8c-1.3-0.4-1.3,0.9-1.9,1.4
			C-2916.8,2100.6-2916.8,2099.3-2918.2,2099.7z M-2916.3,2127.8c-0.2-0.4-0.3-1-0.5-1c-1.1-0.1-2.2,0-3.3,0c0,0.4,0,0.7,0,1
			C-2918.9,2127.8-2917.7,2127.8-2916.3,2127.8z M-2930.3,2107.7c0,1.1,0,2.2,0,3.2c0,0.7,0.1,0.8,0.9,0.6c0-1.3,0-2.5,0-3.8
			C-2929.7,2107.7-2929.9,2107.7-2930.3,2107.7z M-2905,2107.7c0,1.2,0,2.3,0,3.4c0,0.4,0.1,0.5,0.5,0.5c0.4,0,0.4-0.2,0.4-0.5
			c0-0.6,0-1.2,0-1.7c0-0.5,0-1.1,0-1.7C-2904.4,2107.7-2904.7,2107.7-2905,2107.7z M-2896.2,2144.9c0,1.3,0,2.6,0,3.8
			c0.3,0,0.5,0,0.9,0c0-1.1,0-2.1,0-3.2C-2895.3,2144.7-2895.3,2144.7-2896.2,2144.9z"/>
		<path class="st0" d="M-2918.6,2126c-1.2-0.1-2.5-1.4-2.5-2.6c0-1.2,0.4-2.2,1.1-3.2c0.7-1,1.5-2,2.2-3c0.4,0.5,0.9,1.8,0.9,2.5
			c0,0.2-0.2,0.4-0.3,0.6c-0.5,0.7-1.2,1.4-1.6,2.2c-0.5,1-0.5,2,0,3C-2918.8,2125.6-2918.7,2125.8-2918.6,2126z"/>
		<path class="st0" d="M-2917.6,2126.2c-0.1-1.3,0.3-2.3,1.3-3c0.4-0.3,0.9-0.6,1.3-0.9c0.8-0.6,1.6-1.2,2.3-1.7
			C-2912.4,2122.8-2914.5,2126.4-2917.6,2126.2z"/>
		<path class="st0" d="M-2923.4,2102.2c0.2-0.8,0.4-1.3,0.6-1.9c0.2-0.7,0.2-0.7,1.1-0.6c-0.4,1.2-0.8,2.5-1.3,3.7
			c0,0.1-0.3,0.2-0.5,0.2c-0.2,0-0.4-0.2-0.5-0.3c-0.3-0.7-0.5-1.3-0.8-2.2c-0.3,0.8-0.5,1.4-0.7,2.1c-0.1,0.2-0.3,0.3-0.5,0.4
			c-0.3,0.1-0.4-0.1-0.5-0.4c-0.4-1.2-0.8-2.3-1.2-3.4c0.8-0.3,0.9-0.2,1.1,0.5c0.2,0.6,0.4,1.2,0.6,1.9c0.3-0.8,0.5-1.4,0.7-2
			c0.1-0.3,0.1-0.6,0.6-0.6c0.5,0,0.5,0.4,0.6,0.6C-2923.8,2100.8-2923.6,2101.4-2923.4,2102.2z"/>
		<path class="st0" d="M-2915.1,2118.4c0.2,0.9,0.4,1.8,0.5,2.6c0,0.2-0.1,0.4-0.3,0.5c-0.4,0.3-0.8,0.6-1.2,0.8
			c-1.4,1.1-1.7,1.5-2.1,3.3c-0.6-1-0.7-1.9-0.3-2.9c0.2-0.5,0.5-0.9,0.9-1.4C-2916.8,2120.5-2916,2119.5-2915.1,2118.4z"/>
		<path class="st0" d="M-2902,2144.8c0.7,0,1.4-0.1,2,0c1.1,0.1,1.4,0.9,0.7,1.8c0.2,0.2,0.4,0.4,0.5,0.6c0.3,0.7-0.1,1.4-0.9,1.5
			c-0.7,0.1-1.5,0-2.3,0C-2902,2147.4-2902,2146.1-2902,2144.8z M-2901.1,2148c0.4,0,0.8,0,1.2-0.1c0.1,0,0.3-0.2,0.3-0.3
			c0-0.1-0.2-0.4-0.3-0.4c-0.4-0.1-0.8,0-1.2,0C-2901.1,2147.5-2901.1,2147.7-2901.1,2148z M-2901.1,2146.4c0.3,0,0.6,0,0.9,0
			c0.2,0,0.3-0.2,0.4-0.4c-0.1-0.1-0.3-0.3-0.4-0.4c-0.3-0.1-0.6,0-0.9,0C-2901.1,2145.9-2901.1,2146.1-2901.1,2146.4z"/>
		<path class="st0" d="M-2935,2103.5c-0.5,0.2-0.8,0-1.1-0.4c-0.4-0.6-0.9-1.2-1.5-1.8c0,0.7,0,1.4,0,2.2c-0.3,0-0.6,0-0.9,0
			c0-1.3,0-2.6,0-3.9c0.5-0.2,0.9,0,1.2,0.4c0.4,0.6,0.8,1.1,1.4,1.8c0-0.8,0-1.5,0-2.3c0.3,0,0.6,0,0.9,0
			C-2935,2100.9-2935,2102.2-2935,2103.5z"/>
		<path class="st0" d="M-2936.3,2107.7c0.6-0.2,0.9-0.1,1.2,0.4c0.4,0.6,0.9,1.1,1.4,1.6c0-0.7,0-1.4,0-2.1c0.3,0,0.6,0,0.9,0
			c0,0.7,0,1.5,0,2.2c0,0.3,0,0.7,0,1c0,0.2-0.1,0.6-0.2,0.7c-0.3,0.2-0.6,0-0.9-0.3c-0.5-0.6-1-1.3-1.6-1.9c0,0.6,0,1.2,0,1.8
			c0,0.1-0.2,0.4-0.4,0.4c-0.2,0-0.5-0.2-0.5-0.3C-2936.3,2110.1-2936.3,2108.9-2936.3,2107.7z"/>
		<path class="st0" d="M-2934.1,2148.7c0-1.3,0-2.6,0-3.9c0.7,0,1.3-0.1,2,0c1.1,0.1,1.5,0.9,0.8,1.9c0.5,0.3,0.8,0.8,0.5,1.4
			c-0.2,0.6-0.8,0.7-1.3,0.7C-2932.8,2148.7-2933.5,2148.7-2934.1,2148.7z M-2933.2,2147.2c-0.1,0.1-0.1,0.1-0.2,0.2
			c0.1,0.2,0.2,0.5,0.4,0.6c0.3,0.1,0.6,0,0.9,0c0.1,0,0.3-0.2,0.4-0.4c-0.1-0.1-0.3-0.3-0.4-0.3
			C-2932.4,2147.1-2932.8,2147.2-2933.2,2147.2z M-2933.4,2145.6c0.1,0.3,0.2,0.7,0.3,0.7c0.4,0,0.8,0,1.1-0.2
			c0.3-0.2,0.1-0.5-0.2-0.5C-2932.5,2145.6-2932.9,2145.6-2933.4,2145.6z"/>
		<path class="st0" d="M-2906.4,2099.7c0.7,0,1.4,0,2.2,0c0.6,0,1,0.4,1.1,1c0.1,0.7-0.1,1.2-0.8,1.6c0.3,0.4,0.6,0.9,0.9,1.3
			c-0.7,0.2-1.1,0.1-1.4-0.5c-0.2-0.4-0.4-0.9-1-0.6c0,0.4,0,0.7-0.1,1.2c-0.3,0-0.5,0-0.8,0
			C-2906.4,2102.3-2906.4,2101-2906.4,2099.7z M-2905.5,2101.7c0.5-0.2,1-0.2,1.4-0.4c0.1,0,0-0.5,0-0.6c-0.4-0.1-0.8-0.2-1.3-0.3
			C-2905.5,2100.8-2905.5,2101.2-2905.5,2101.7z"/>
		<path class="st0" d="M-2919.9,2148.7c0-1.2,0-2.4,0-3.6c0-0.1,0.2-0.3,0.3-0.3c0.6,0,1.2,0,1.7,0.1c1,0.2,1.6,1,1.6,1.9
			c0,0.9-0.7,1.8-1.7,1.9C-2918.5,2148.8-2919.2,2148.7-2919.9,2148.7z M-2918.9,2147.9c0.6,0,1.3,0.1,1.6-0.5
			c0.2-0.4,0.2-0.9,0-1.3c-0.3-0.6-0.9-0.5-1.5-0.5C-2918.9,2146.4-2918.9,2147.1-2918.9,2147.9z"/>
		<path class="st0" d="M-2914.9,2110.4c0,0.4,0,0.7-0.1,1.1c-0.8,0.3-0.9,0.2-0.9-0.5c0-1.1,0-2.1,0-3.3c0.8,0,1.6,0,2.4,0.1
			c0.5,0.1,0.8,0.5,0.9,1c0.1,0.5,0,0.9-0.4,1.2c-0.1,0.1-0.2,0.2-0.3,0.3c0.3,0.4,0.6,0.8,0.9,1.3c-0.6,0.2-1,0.1-1.4-0.4
			C-2914,2110.7-2914.2,2110.1-2914.9,2110.4z M-2914.9,2109.7c0.5-0.2,1-0.2,1.4-0.4c0.1,0,0-0.5,0-0.6c-0.4-0.1-0.8-0.2-1.3-0.3
			C-2914.9,2108.8-2914.9,2109.1-2914.9,2109.7z"/>
		<path class="st0" d="M-2921.5,2119.2c0.4,0.7,0.8,1.3,0.4,2.1c-0.5,1.3-0.7,2.6,0.3,3.8c0.3,0.4,0.7,0.7,1.1,1
			c-2.1,0.5-3.8-1.6-3.2-3.7C-2922.5,2121.4-2922,2120.4-2921.5,2119.2z"/>
		<path class="st0" d="M-2910.6,2103.6c-1.2,0-2.1-0.9-2.1-2c0-1.1,0.9-2,2.1-2c1.2,0,2.1,0.9,2.1,2
			C-2908.5,2102.8-2909.4,2103.6-2910.6,2103.6z M-2910.6,2100.4c-0.6,0-1.1,0.6-1.1,1.2c0,0.7,0.6,1.2,1.2,1.2
			c0.6,0,1.1-0.6,1.1-1.3C-2909.5,2100.9-2910,2100.4-2910.6,2100.4z"/>
		<path class="st0" d="M-2929.4,2103.5c-1,0-1.9,0-2.9,0c0-1.3,0-2.6,0-3.9c1,0,1.9,0,2.9,0c0.2,0.7,0.1,0.8-0.6,0.8
			c-0.5,0-0.9,0-1.4,0c0,0.3,0,0.5,0,0.7c0.6,0,1.2,0,1.7,0c0.2,0.8,0.2,0.8-0.6,0.8c-0.3,0-0.7,0-1,0c0,0-0.1,0-0.2,0.1
			c0,0.2,0,0.4,0,0.7c0.7,0,1.3,0,2.1,0C-2929.4,2103-2929.4,2103.3-2929.4,2103.5z"/>
		<path class="st0" d="M-2910.5,2148.7c-0.3,0-0.5,0-0.8,0c0-0.5,0-1,0-1.5c-0.5,0-1,0-1.6,0c0,0.5,0,1-0.1,1.5c-0.3,0-0.5,0-0.8,0
			c0-1.3,0-2.5,0-3.9c0.3,0,0.5,0,0.8,0c0,0.5,0,0.9,0.1,1.4c0.5,0,1,0,1.5,0c0-0.5,0-0.9,0-1.5c0.3,0,0.6,0,0.9,0
			C-2910.5,2146.1-2910.5,2147.4-2910.5,2148.7z"/>
		<path class="st0" d="M-2918.2,2110.7c0,0.3,0,0.5,0,0.8c-1,0-2,0-3,0c0-1.3,0-2.6,0-3.9c1,0,1.9,0,2.9,0c0,0.2,0,0.4,0,0.8
			c-0.5,0-1,0-1.5,0c-0.6,0-0.7,0.3-0.5,0.8c0.6,0,1.1,0,1.8,0c0,0.3,0,0.5,0,0.8c-0.4,0-0.8,0-1.2,0c-0.6-0.1-0.7,0.2-0.5,0.8
			C-2919.6,2110.7-2919,2110.7-2918.2,2110.7z"/>
		<path class="st0" d="M-2928.4,2144.8c0.3,0,0.5,0,0.9,0c0,0.5,0,1.1,0,1.6c0,0.3,0,0.6,0.1,0.9c0.1,0.5,0.4,0.7,0.9,0.6
			c0.4,0,0.7-0.3,0.7-0.7c0-0.6,0-1.3,0-1.9c0-0.3,0-0.5,0.4-0.5c0.4,0,0.5,0.2,0.5,0.5c0,0.7,0,1.5-0.1,2.2
			c-0.1,0.8-0.7,1.3-1.7,1.3c-0.9,0-1.5-0.5-1.7-1.3c0-0.2,0-0.5,0-0.7C-2928.4,2146.2-2928.4,2145.5-2928.4,2144.8z"/>
		<path class="st0" d="M-2899.9,2101.3c0.5-0.5,0.8-0.8,1.1-1.2c0.4-0.5,0.8-0.5,1.5-0.4c-0.5,0.6-1,1.1-1.5,1.6
			c0.5,0.7,1.1,1.4,1.6,2.2c-0.7,0.2-1.1,0.1-1.5-0.5c-0.2-0.4-0.5-0.7-0.7-1c-0.8,0.3-0.3,1-0.5,1.6c-0.2,0-0.5,0-0.8,0
			c0-1.3,0-2.6,0-3.9c0.3,0,0.5,0,0.8,0C-2899.9,2100.2-2899.9,2100.7-2899.9,2101.3z"/>
		<path class="st0" d="M-2942.2,2107.7c0.3,0,0.5,0,0.9,0c0,0.7-0.1,1.4,0,2.1c0,0.3,0.2,0.8,0.5,0.9c0.5,0.3,1.1-0.1,1.1-0.7
			c0-0.8,0-1.5,0-2.3c0.3,0,0.6,0,1,0c0,1,0,1.9-0.1,2.9c-0.1,0.8-0.8,1.1-1.8,1.1c-0.8,0-1.4-0.5-1.5-1.3
			C-2942.2,2109.5-2942.2,2108.6-2942.2,2107.7z"/>
		<path class="st0" d="M-2904.2,2148.7c-0.6,0.1-1,0.1-1.2-0.5c0-0.1-0.2-0.2-0.4-0.3c-0.4,0-0.7,0-1.1,0c-0.1,0-0.4,0.2-0.4,0.3
			c-0.1,0.6-0.5,0.6-1.1,0.5c0.2-0.5,0.4-0.9,0.6-1.3c0.3-0.8,0.6-1.5,1-2.2c0.2-0.4,0.8-0.5,1-0.1
			C-2905.2,2146.2-2904.7,2147.4-2904.2,2148.7z M-2905.8,2147c-0.2-0.4-0.3-0.7-0.5-1.2c-0.2,0.5-0.3,0.8-0.4,1.2
			C-2906.4,2147-2906.1,2147-2905.8,2147z"/>
		<path class="st0" d="M-2940.4,2148.7c0.5-1.3,1-2.5,1.6-3.7c0.2-0.4,0.8-0.4,1,0c0.5,1.2,1,2.4,1.6,3.7c-0.5,0.1-1,0.2-1.2-0.5
			c0-0.1-0.3-0.3-0.5-0.3c-0.3,0-0.6,0-1,0c-0.2,0-0.4,0.2-0.4,0.3C-2939.4,2148.8-2939.8,2148.8-2940.4,2148.7z M-2937.8,2147
			c-0.2-0.4-0.3-0.7-0.5-1.1c-0.2,0.4-0.3,0.8-0.5,1.1C-2938.4,2147-2938.2,2147-2937.8,2147z"/>
		<path class="st0" d="M-2918.3,2135.3c-0.3-2.3-0.5-4.7-0.8-7.1c0.6,0,1.1,0,1.8,0c-0.2,2.4-0.4,4.7-0.6,7
			C-2918.1,2135.3-2918.2,2135.3-2918.3,2135.3z"/>
		<path class="st0" d="M-2910.5,2111c0.2-0.2,0.3-0.4,0.5-0.5c0.4,0.1,0.8,0.3,1.2,0.4c0.2,0,0.4-0.2,0.5-0.3
			c-0.1-0.2-0.2-0.4-0.4-0.4c-0.3-0.1-0.6-0.2-0.9-0.3c-0.5-0.2-0.8-0.6-0.8-1.1c0.1-0.6,0.4-0.9,0.9-1c0.7-0.2,1.3,0,1.9,0.4
			c-0.1,0.2-0.3,0.4-0.4,0.6c-0.4-0.1-0.8-0.2-1.1-0.3c-0.1,0-0.3,0.2-0.4,0.3c0.1,0.1,0.2,0.3,0.3,0.4c0.3,0.1,0.7,0.2,1,0.3
			c0.5,0.2,0.8,0.5,0.7,1.1c0,0.5-0.3,0.9-0.8,1C-2909,2111.8-2909.8,2111.6-2910.5,2111z"/>
		<path class="st0" d="M-2925.3,2110.3c0.3-0.8,0.5-1.4,0.7-2c0.3-0.8,0.3-0.8,1.2-0.6c-0.5,1.2-1,2.4-1.5,3.6
			c-0.1,0.1-0.3,0.2-0.5,0.2c-0.2,0-0.4-0.1-0.4-0.3c-0.5-1.2-1-2.4-1.4-3.5c0.7-0.3,0.9-0.2,1.1,0.4
			C-2925.9,2108.8-2925.6,2109.5-2925.3,2110.3z"/>
		<path class="st0" d="M-2898.6,2107.7c-0.1,0.3-0.2,0.7-0.4,0.8c-0.2,0.1-0.6,0-0.9,0c0,0.9,0,1.7,0,2.6c0,0.3,0,0.6-0.5,0.6
			c-0.4,0-0.5-0.2-0.5-0.6c0-0.8,0-1.6,0-2.4c-0.4-0.3-1.5,0.3-1.1-0.9C-2900.9,2107.7-2899.9,2107.7-2898.6,2107.7z"/>
		<path class="st0" d="M-2897.3,2107.7c0.6-0.2,1.1-0.1,1.4,0.5c0.1,0.3,0.3,0.6,0.5,0.9c0.6-0.5,0.6-1.8,1.9-1.4
			c-0.3,0.5-0.6,1-0.9,1.4c-0.4,0.6-0.7,1.2-0.6,1.9c0,0.3,0,0.6-0.5,0.6c-0.5,0-0.5-0.3-0.4-0.6c0.1-0.7-0.1-1.4-0.6-1.9
			C-2896.7,2108.7-2897,2108.2-2897.3,2107.7z"/>
		<path class="st0" d="M-2918.2,2099.7c1.3-0.4,1.3,0.9,1.9,1.4c0.6-0.4,0.6-1.8,1.9-1.4c-0.6,1.2-1.9,2.2-1.4,3.8c-0.4,0-0.6,0-1,0
			C-2916.3,2102-2917.5,2101-2918.2,2099.7z"/>
		<path class="st0" d="M-2916.3,2127.8c-1.4,0-2.6,0-3.8,0c0-0.3,0-0.7,0-1c1.1,0,2.2,0,3.3,0
			C-2916.6,2126.8-2916.5,2127.3-2916.3,2127.8z"/>
		<path class="st0" d="M-2930.3,2107.7c0.4,0,0.6,0,0.9,0c0,1.3,0,2.6,0,3.8c-0.8,0.2-0.9,0.2-0.9-0.6
			C-2930.3,2109.8-2930.3,2108.8-2930.3,2107.7z"/>
		<path class="st0" d="M-2905,2107.7c0.3,0,0.6,0,0.9,0c0,0.6,0,1.1,0,1.7c0,0.6,0,1.2,0,1.7c0,0.3,0,0.5-0.4,0.5
			c-0.4,0-0.5-0.2-0.5-0.5C-2905,2109.9-2905,2108.8-2905,2107.7z"/>
		<path class="st0" d="M-2896.2,2144.9c0.8-0.1,0.9-0.1,0.9,0.6c0,1.1,0,2.1,0,3.2c-0.3,0-0.6,0-0.9,0
			C-2896.2,2147.4-2896.2,2146.2-2896.2,2144.9z"/>
		<path d="M-2901.1,2148c0-0.3,0-0.5,0-0.8c0.4,0,0.8,0,1.2,0c0.1,0,0.3,0.2,0.3,0.4c0,0.1-0.2,0.3-0.3,0.3
			C-2900.3,2148-2900.7,2147.9-2901.1,2148z"/>
		<path d="M-2901.1,2146.4c0-0.3,0-0.5,0-0.7c0.3,0,0.6,0,0.9,0c0.2,0,0.3,0.2,0.4,0.4c-0.1,0.1-0.3,0.3-0.4,0.4
			C-2900.5,2146.4-2900.8,2146.4-2901.1,2146.4z"/>
		<path d="M-2933.2,2147.2c0.4,0,0.8,0,1.1,0c0.1,0,0.3,0.2,0.4,0.3c-0.1,0.1-0.2,0.3-0.4,0.4c-0.3,0.1-0.7,0.1-0.9,0
			c-0.2-0.1-0.3-0.4-0.4-0.6C-2933.3,2147.3-2933.3,2147.2-2933.2,2147.2z"/>
		<path d="M-2933.4,2145.6c0.5,0,0.8,0,1.1,0c0.3,0,0.5,0.4,0.2,0.5c-0.3,0.2-0.7,0.2-1.1,0.2
			C-2933.2,2146.3-2933.2,2145.9-2933.4,2145.6z"/>
		<path d="M-2905.5,2101.7c0-0.5,0-0.8,0-1.3c0.5,0.1,0.9,0.2,1.3,0.3c0.1,0,0.1,0.5,0,0.6
			C-2904.6,2101.4-2905,2101.5-2905.5,2101.7z"/>
		<path d="M-2918.9,2147.9c0-0.8,0-1.5,0-2.2c0.6-0.1,1.3-0.1,1.5,0.5c0.2,0.4,0.2,0.9,0,1.3
			C-2917.6,2148-2918.3,2147.9-2918.9,2147.9z"/>
		<path d="M-2914.9,2109.7c0-0.5,0-0.8,0-1.3c0.5,0.1,0.9,0.2,1.3,0.3c0.1,0,0.1,0.5,0,0.6
			C-2913.9,2109.4-2914.4,2109.5-2914.9,2109.7z"/>
		<path d="M-2910.6,2100.4c0.6,0,1.2,0.5,1.2,1.2c0,0.7-0.4,1.2-1.1,1.3c-0.7,0-1.2-0.5-1.2-1.2
			C-2911.8,2101-2911.3,2100.4-2910.6,2100.4z"/>
		<path d="M-2905.8,2147c-0.3,0-0.6,0-0.9,0c0.1-0.4,0.3-0.7,0.4-1.2C-2906.1,2146.3-2905.9,2146.7-2905.8,2147z"/>
		<path d="M-2937.8,2147c-0.4,0-0.6,0-0.9,0c0.2-0.4,0.3-0.7,0.5-1.1C-2938.1,2146.3-2938,2146.6-2937.8,2147z"/>
	</g>
</g>
</svg>
